<svg width="43" height="43" viewBox="0 0 43 43" fill="none" xmlns="http://www.w3.org/2000/svg">
<path d="M39.7462 3.89869H7.79729V4.17839L7.39753 2.80786C6.91589 1.15452 5.37686 0 3.655 0H0.974696C0.43595 0 0 0.43595 0 0.974696C0 1.51344 0.43595 1.94939 0.974696 1.94939H3.655C4.51639 1.94939 5.28549 2.52624 5.52626 3.35337L11.5932 24.1535L8.48452 28.0388C8.04099 28.5938 7.79729 29.2896 7.79729 29.9996C7.79729 31.7309 9.20502 33.1387 10.9364 33.1387H38.012C38.5507 33.1387 38.9867 32.7027 38.9867 32.164C38.9867 31.6252 38.5507 31.1893 38.012 31.1893H10.9364C10.2806 31.1893 9.74659 30.6553 9.74659 29.9995C9.74659 29.7301 9.83888 29.4655 10.0074 29.2561L13.1396 25.3413H32.2572C33.7601 25.3413 35.145 24.4627 35.7856 23.1026L42.5874 8.64918C42.7825 8.23324 42.8853 7.77162 42.8853 7.31374V7.03769C42.8853 5.30641 41.4775 3.89869 39.7462 3.89869ZM40.936 7.31383C40.936 7.48799 40.8969 7.66316 40.8227 7.82023L34.0219 22.2726C33.7012 22.9523 33.0092 23.392 32.2572 23.392H13.4017L8.28432 5.84799H39.7462C40.402 5.84799 40.936 6.38199 40.936 7.03779V7.31383Z" fill="white"/>
<path d="M11.6962 35.0879C9.54604 35.0879 7.79749 36.8363 7.79749 38.9866C7.79749 41.1368 9.54594 42.8853 11.6962 42.8853C13.8464 42.8853 15.5949 41.1368 15.5949 38.9866C15.5949 36.8363 13.8463 35.0879 11.6962 35.0879ZM11.6962 40.9359C10.6216 40.9359 9.74688 40.0612 9.74688 38.9866C9.74688 37.912 10.6216 37.0373 11.6962 37.0373C12.7707 37.0373 13.6455 37.912 13.6455 38.9866C13.6455 40.0612 12.7707 40.9359 11.6962 40.9359Z" fill="white"/>
<path d="M35.088 35.0879C32.9379 35.0879 31.1893 36.8363 31.1893 38.9866C31.1893 41.1368 32.9378 42.8853 35.088 42.8853C37.2383 42.8853 38.9867 41.1368 38.9867 38.9866C38.9867 36.8363 37.2382 35.0879 35.088 35.0879ZM35.088 40.9359C34.0135 40.9359 33.1387 40.0612 33.1387 38.9866C33.1387 37.912 34.0135 37.0373 35.088 37.0373C36.1626 37.0373 37.0373 37.912 37.0373 38.9866C37.0373 40.0612 36.1626 40.9359 35.088 40.9359Z" fill="white"/>
</svg>
