<svg width="41" height="41" viewBox="0 0 41 41" fill="none" xmlns="http://www.w3.org/2000/svg">
    <path d="M12.2779 9.28644C12.9139 10.5348 13.9503 11.5477 15.34 11.9717C15.6227 10.5584 15.2222 9.14511 14.4685 7.94382C13.7383 6.76609 12.6312 5.80034 11.4535 5.21148C11.3593 6.57765 11.6184 8.03804 12.2779 9.28644ZM10.2286 10.3228C9.30999 8.55624 8.98023 6.45988 9.21577 4.5755C9.26288 4.15152 9.3571 3.75109 9.45132 3.37421C9.6162 2.76179 10.2522 2.40847 10.841 2.57335C10.8646 2.57335 10.8882 2.59691 10.9117 2.59691C11.1944 2.66757 11.477 2.76179 11.7832 2.87956C13.5969 3.60976 15.2929 4.99948 16.4 6.74253C16.4942 4.76394 17.2479 2.78534 18.4021 1.25429C18.6612 0.924522 18.9203 0.618311 19.203 0.335654C19.6505 -0.111885 20.3571 -0.111885 20.8047 0.335654C21.0167 0.547647 21.2522 0.806748 21.4642 1.06585C22.6891 2.59691 23.4428 4.64616 23.537 6.71898C24.597 5.04659 26.2458 3.70398 28.0124 2.97378C28.4129 2.8089 28.7897 2.66757 29.1666 2.57335C29.779 2.40847 30.3914 2.76179 30.5563 3.37421C30.6505 3.68042 30.6977 4.01019 30.7448 4.33995C31.0274 6.27144 30.6741 8.43847 29.7084 10.2522C31.475 9.33355 33.5713 9.00378 35.4557 9.23933C35.8797 9.28644 36.2801 9.38066 36.657 9.47488C37.2694 9.63976 37.6227 10.2757 37.4579 10.8646C37.4579 10.8882 37.4343 10.9117 37.4343 10.9353C37.3636 11.2179 37.2694 11.5006 37.1516 11.7832C36.4215 13.5969 35.0317 15.2929 33.2887 16.4C35.2673 16.4942 37.2459 17.2479 38.7769 18.4021C39.1067 18.6612 39.4129 18.9203 39.6956 19.203C40.1431 19.6505 40.1431 20.3571 39.6956 20.8047C39.4836 21.0167 39.2245 21.2522 38.9654 21.4407C37.4343 22.6655 35.385 23.4193 33.3122 23.5135C34.9846 24.5734 36.3272 26.2223 37.0574 27.9889C37.2223 28.3893 37.3636 28.7662 37.4579 29.143C37.6227 29.7555 37.2694 30.3679 36.657 30.5328C36.3508 30.627 36.021 30.6741 35.6913 30.7212C33.7598 31.0039 31.5927 30.6505 29.779 29.6848C30.6977 31.4514 31.0274 33.5478 30.7919 35.4321C30.7448 35.8561 30.6505 36.2566 30.5563 36.6334C30.3914 37.2459 29.7555 37.5992 29.1666 37.4343C29.143 37.4343 29.1195 37.4107 29.0959 37.4107C28.8133 37.3401 28.5306 37.2459 28.248 37.1281C26.4343 36.3979 24.7383 35.0082 23.6313 33.2651C23.537 35.2437 22.7833 37.2223 21.6291 38.7534C21.37 39.0831 21.1109 39.3893 20.8282 39.672C20.3807 40.1195 19.6741 40.1195 19.2265 39.672C19.0145 39.46 18.779 39.2009 18.567 38.9418C17.3421 37.4107 16.5884 35.3615 16.4942 33.2887C15.4342 34.9611 13.7854 36.3037 12.0188 37.0339C11.6184 37.1988 11.2415 37.3401 10.8646 37.4343C10.2522 37.5992 9.63976 37.2223 9.47488 36.6334C9.38066 36.3272 9.33355 35.9975 9.28644 35.6677C9.00378 33.7362 9.3571 31.5692 10.3228 29.7555C8.55624 30.6741 6.45988 31.0039 4.5755 30.7683C4.15152 30.7212 3.75109 30.627 3.37421 30.5328C2.76179 30.3679 2.40847 29.7319 2.57335 29.143C2.57335 29.1195 2.59691 29.0959 2.59691 29.0724C2.66757 28.7897 2.76179 28.5071 2.87956 28.2009C3.60976 26.3871 4.99948 24.6912 6.74253 23.5841C4.76394 23.4899 2.78534 22.7362 1.25429 21.582C0.924522 21.3229 0.618311 21.0638 0.335654 20.7811C-0.111885 20.3336 -0.111885 19.627 0.335654 19.1794C0.547647 18.9439 0.806748 18.7319 1.06585 18.5199C2.59691 17.295 4.64616 16.5413 6.71898 16.4471C5.04659 15.3871 3.70398 13.7383 2.97378 11.9717C2.8089 11.5712 2.66757 11.1944 2.57335 10.8175C2.40847 10.2051 2.76179 9.59265 3.37421 9.42777C3.68042 9.33355 4.01019 9.28644 4.33995 9.23933C6.24788 9.00378 8.41492 9.3571 10.2286 10.3228ZM27.7533 30.7919C27.1173 29.5435 26.0809 28.5306 24.6912 28.1066C24.4086 29.5199 24.809 30.9332 25.5627 32.1345C26.2929 33.3122 27.4 34.278 28.5777 34.8668C28.672 33.4771 28.3893 32.0167 27.7533 30.7919ZM7.94382 14.6098C9.12156 15.3636 10.5113 15.7169 11.9481 15.4107C11.477 14.0445 10.4406 13.0081 9.19222 12.3485C7.96738 11.7126 6.53054 11.4064 5.21148 11.5006C5.77679 12.7254 6.74253 13.8561 7.94382 14.6098ZM32.0874 25.4685C30.9097 24.7148 29.5199 24.3614 28.0831 24.6677C28.5542 26.0338 29.5906 27.0702 30.839 27.7298C32.0638 28.3657 33.5007 28.672 34.8197 28.5777C34.2309 27.3529 33.2651 26.2223 32.0874 25.4685ZM18.6848 6.86031C18.6141 8.25003 18.991 9.63976 20.0038 10.7233C20.946 9.63976 21.3229 8.22648 21.2758 6.8132C21.2051 5.42347 20.7576 4.03374 20.0038 2.92667C19.2501 4.0573 18.7319 5.44702 18.6848 6.86031ZM33.1945 18.7083C31.8047 18.6377 30.415 19.0145 29.3315 20.0274C30.415 20.9696 31.8283 21.3464 33.2416 21.2993C34.6313 21.2522 36.021 20.7811 37.1281 20.0509C35.9975 19.2736 34.5842 18.7554 33.1945 18.7083ZM6.83675 21.37C8.22648 21.4407 9.6162 21.0402 10.6997 20.0509C9.6162 19.1087 8.20292 18.7319 6.78964 18.779C5.39991 18.8496 4.01019 19.2972 2.90312 20.0509C4.03374 20.8047 5.42347 21.2993 6.83675 21.37ZM14.5862 32.1109C15.34 30.9332 15.6933 29.5435 15.3871 28.1066C14.0209 28.5777 12.9845 29.6141 12.325 30.8625C11.689 32.0874 11.3828 33.5242 11.477 34.8433C12.7019 34.2544 13.8325 33.2887 14.5862 32.1109ZM30.7683 12.3014C29.5199 12.9374 28.5071 13.9738 28.0831 15.3636C29.4964 15.6462 30.9096 15.2458 32.1109 14.492C33.2887 13.7618 34.2544 12.6548 34.8433 11.477C33.4536 11.3828 31.9932 11.6419 30.7683 12.3014ZM9.26288 27.7769C10.5113 27.1409 11.5241 26.1045 11.9481 24.7148C10.5348 24.4321 9.12156 24.8325 7.92027 25.5863C6.74253 26.3165 5.77679 27.4236 5.18792 28.6013C6.55409 28.6955 8.01449 28.4129 9.26288 27.7769ZM21.3464 33.218C21.4171 31.8283 21.0167 30.4386 20.0274 29.355C19.0852 30.4386 18.7083 31.8518 18.7554 33.2651C18.8025 34.6548 19.2736 36.0446 20.0038 37.1516C20.7811 36.021 21.2758 34.6077 21.3464 33.218ZM25.445 7.96738C24.6912 9.14511 24.3379 10.5348 24.6441 11.9717C26.0103 11.5006 27.0467 10.4642 27.7062 9.21577C28.3422 7.99093 28.6484 6.55409 28.5542 5.23503C27.3293 5.80034 26.1987 6.76609 25.445 7.96738ZM24.6912 15.3636C23.4899 14.1623 21.8411 13.4321 20.0038 13.4321C18.1666 13.4321 16.5177 14.1623 15.3164 15.3636C14.1387 16.5648 13.4085 18.2137 13.4085 20.0274C13.4085 21.8646 14.1387 23.5135 15.34 24.7148C16.5413 25.9161 18.1901 26.6462 20.0274 26.6462C21.8646 26.6462 23.5135 25.9161 24.7148 24.7148C25.9161 23.5135 26.6462 21.8646 26.6462 20.0274C26.6227 18.2137 25.8925 16.5648 24.6912 15.3636Z"
          fill="#A6CE39"/>
</svg>
