<svg width="45" height="52" viewBox="0 0 45 52" fill="none" xmlns="http://www.w3.org/2000/svg">
<path d="M15.2406 7.85126C15.0761 7.54664 14.6965 7.43368 14.3922 7.59786C14.2843 7.65587 14.1968 7.74406 14.1388 7.85126C13.5326 8.97307 12.4858 10.6658 11.2737 12.6241C6.76648 19.8913 0 30.8696 0 37.2405C0.00848055 45.35 6.58025 51.9214 14.6897 51.9299C22.7106 52.0191 29.2851 45.5888 29.374 37.5679C29.375 37.4586 29.375 37.3497 29.374 37.2405C29.374 30.8496 22.2371 19.3055 17.9802 12.404C16.8082 10.5206 15.8013 8.89301 15.2406 7.85126ZM14.6897 50.6778C7.27158 50.6693 1.26021 44.6576 1.25207 37.2405C1.25207 31.2302 8.19359 19.9914 12.3406 13.2805C13.2521 11.7778 14.0737 10.4758 14.6897 9.41881C15.2606 10.3903 16.0167 11.6177 16.9082 13.06C21.1054 19.8462 28.1219 31.2054 28.1219 37.2405C28.2027 44.5813 22.3175 50.5971 14.9767 50.6778C14.881 50.6788 14.7854 50.6788 14.6897 50.6778Z" fill="#576366"/>
<path d="M14.0635 45.7146C14.0635 46.06 14.344 46.3405 14.6897 46.3405C19.7444 46.3351 23.8412 42.2403 23.8501 37.1852C23.8501 36.8399 23.5695 36.5594 23.2239 36.5594C22.8782 36.5594 22.5976 36.8399 22.5976 37.1852C22.5922 41.5507 19.0548 45.0881 14.6897 45.0935C14.3454 45.0928 14.0662 45.3703 14.0635 45.7146Z" fill="#576366"/>
<path d="M37.5777 3.25854C36.8266 2.04683 36.1804 0.994903 35.8198 0.328669C35.6556 0.0243865 35.2761 -0.088914 34.9714 0.0752699C34.8636 0.133277 34.776 0.221475 34.718 0.328669C34.3323 1.04477 33.6563 2.13673 32.875 3.39898C29.9652 8.1118 25.5627 15.2334 25.5627 19.4256C25.5767 24.7782 29.9163 29.1114 35.2689 29.1168C40.5713 29.1755 44.9164 24.9244 44.9751 19.622C44.9761 19.5514 44.9761 19.4809 44.9751 19.4106C44.9751 15.2236 40.5177 8.02157 37.5777 3.25854ZM35.2689 27.8648C30.6043 27.8563 26.8253 24.0753 26.8199 19.4106C26.8199 15.5893 31.2824 8.39234 33.9466 4.06012C34.4477 3.2487 34.9032 2.51259 35.274 1.88638C35.6095 2.45729 36.0101 3.13845 36.5112 3.92986C39.2056 8.29227 43.7183 15.5893 43.7183 19.4259C43.7597 24.0451 40.0489 27.8234 35.4304 27.8648C35.3761 27.8651 35.3225 27.8651 35.2689 27.8648Z" fill="#576366"/>
<path d="M40.7783 18.7495C40.4326 18.7495 40.152 19.03 40.152 19.3757C40.149 22.0712 37.9644 24.2557 35.2689 24.2588C34.9236 24.2588 34.6431 24.5393 34.6431 24.8847C34.6431 25.2303 34.9236 25.5109 35.2689 25.5109C38.6551 25.5054 41.3987 22.7618 41.4041 19.3757C41.4041 19.0293 41.1236 18.7495 40.7783 18.7495Z" fill="#576366"/>
</svg>
