<svg width="223" height="104" viewBox="0 0 223 104" fill="none" xmlns="http://www.w3.org/2000/svg">
<path fill-rule="evenodd" clip-rule="evenodd" d="M141.328 1.39373C97.2937 -6.18416 65.1816 18.2916 73.1879 62.104C108.781 75.2564 151.162 60.6232 150.031 17.4205C128.362 16.4624 108.433 22.037 101.384 41.0252C107.998 31.2698 124.794 21.8628 143.069 23.6919C136.629 48.6902 111.566 60.449 83.4568 53.8293C81.1942 28.7438 91.202 -0.0870033 141.328 1.39373Z" fill="white"/>
<path d="M21.7561 103.739V85.7085H29.5013C31.6769 85.7085 33.4174 86.3182 34.6358 87.5376C35.593 88.4958 36.0282 89.6281 36.0282 91.1088C36.0282 92.5896 35.593 93.7219 34.7228 94.5929C33.8525 95.4639 32.6342 96.0737 31.1548 96.335L36.6373 103.652H34.1136L28.8921 96.6834H23.7577V103.652H21.7561V103.739ZM23.8447 94.9413H29.3273C30.7196 94.9413 31.851 94.5929 32.6342 93.8961C33.5044 93.1993 33.9396 92.3283 33.9396 91.1088C33.9396 89.9765 33.5044 89.1055 32.7212 88.4958C31.938 87.886 30.8067 87.5376 29.3273 87.5376H23.7577V94.9413H23.8447Z" fill="white"/>
<path d="M39.9443 103.739L48.1247 85.6216H50.0392L58.2195 103.739H56.0439C53.6942 98.5127 51.4316 93.2866 49.0819 87.9733C46.7323 93.1995 44.3826 98.5127 42.0329 103.739H39.9443Z" fill="white"/>
<path d="M62.4836 103.739V85.7085H64.3982L75.7114 100.167V85.7085H77.713V103.739H76.1465L64.4852 89.0184V103.739H62.4836Z" fill="white"/>
<path d="M83.8918 103.739V85.7085H88.9393C91.7241 85.7085 94.0737 86.5795 95.8142 88.2345C97.5547 89.9765 98.512 92.067 98.512 94.68C98.512 97.206 97.6417 99.3835 95.8142 101.126C93.9867 102.868 91.7241 103.739 88.9393 103.739H83.8918ZM85.9804 101.822H89.0263C91.2889 101.822 93.0294 101.126 94.4218 99.819C95.8142 98.5125 96.5104 96.7705 96.5104 94.68C96.5104 92.6767 95.8142 90.9346 94.4218 89.6281C93.0294 88.2345 91.2889 87.6247 89.0263 87.6247H85.9804V101.822Z" fill="white"/>
<path d="M215.908 104C213.123 104 210.687 103.042 208.598 101.126L209.816 99.6449C210.774 100.516 211.731 101.126 212.688 101.561C213.646 101.997 214.777 102.171 215.995 102.171C217.214 102.171 218.171 101.91 218.867 101.3C219.563 100.69 219.998 99.9933 219.998 99.0352C219.998 98.1642 219.65 97.4674 219.041 96.9448C218.432 96.4221 217.127 95.9866 215.386 95.6382C213.21 95.2027 211.731 94.593 210.774 93.722C209.816 92.938 209.381 91.8057 209.381 90.325C209.381 88.9313 209.904 87.7119 211.035 86.8409C212.166 85.8828 213.559 85.4473 215.299 85.4473C217.649 85.4473 219.737 86.1441 221.652 87.6248L220.434 89.1927C218.867 87.8861 217.127 87.2764 215.212 87.2764C214.081 87.2764 213.123 87.5377 212.427 88.1474C211.731 88.67 211.383 89.454 211.383 90.2379C211.383 91.1089 211.731 91.8057 212.427 92.3283C213.123 92.8509 214.429 93.2865 216.256 93.722C218.258 94.1575 219.737 94.7672 220.695 95.5511C221.652 96.335 222.087 97.4674 222.087 98.861C222.087 100.429 221.478 101.648 220.346 102.519C219.128 103.565 217.649 104 215.908 104Z" fill="white"/>
<path d="M189.105 103.739V85.7085H191.019L202.333 100.167V85.7085H204.334V103.739H202.681L191.106 89.0184V103.739H189.105Z" fill="white"/>
<path d="M147.594 103.739V85.7085H149.682L156.209 95.551L162.736 85.7085H164.825V103.739H162.736V89.1926L156.209 98.7738H156.122L149.595 89.1926V103.739H147.594Z" fill="white"/>
<path d="M129.232 103.739V85.7085H142.198V87.6247H131.233V93.7219H141.067V95.6381H131.233V101.91H142.372V103.739H129.232Z" fill="white"/>
<path d="M118.179 104C115.395 104 112.958 103.042 110.869 101.126L112.088 99.6449C113.045 100.516 114.002 101.126 114.96 101.561C115.917 101.997 117.048 102.171 118.266 102.171C119.485 102.171 120.442 101.91 121.138 101.3C121.834 100.69 122.27 99.9933 122.27 99.0352C122.27 98.1642 121.922 97.4674 121.312 96.9448C120.703 96.4221 119.398 95.9866 117.57 95.6382C115.395 95.2027 113.915 94.593 112.958 93.722C112.001 92.938 111.566 91.8057 111.566 90.325C111.566 88.9313 112.088 87.7119 113.219 86.8409C114.35 85.8828 115.743 85.4473 117.483 85.4473C119.833 85.4473 121.922 86.1441 123.836 87.6248L122.618 89.1927C121.051 87.8861 119.311 87.2764 117.396 87.2764C116.265 87.2764 115.308 87.5377 114.611 88.1474C113.915 88.67 113.567 89.454 113.567 90.2379C113.567 91.1089 113.915 91.8057 114.611 92.3283C115.308 92.8509 116.613 93.2865 118.441 93.722C120.442 94.1575 121.922 94.7672 122.879 95.5511C123.836 96.335 124.271 97.4674 124.271 98.861C124.271 100.429 123.662 101.648 122.531 102.519C121.486 103.565 120.007 104 118.179 104Z" fill="white"/>
<path d="M14.6201 103.739V96.7708H12.6186V101.91H9.57272C7.31007 101.91 5.56958 101.213 4.17719 99.9065C2.78479 98.5999 2.17562 96.8579 2.17562 94.7674C2.17562 92.7641 2.87181 91.022 4.26421 89.7155C5.65661 88.3219 7.3971 87.7121 9.65974 87.7121H11.7483H12.7056H14.7072V85.7959H9.57272C6.78793 85.7959 4.43826 86.6669 2.69777 88.3219C0.957272 90.0639 0 92.1544 0 94.7674C0 97.2934 0.870247 99.4709 2.69777 101.213C4.52528 102.955 6.78793 103.826 9.57272 103.826H14.6201V103.739Z" fill="white"/>
<path d="M170.742 103.739V85.7085H183.796V87.6247H172.831V93.7219H182.578V95.6381H172.831V101.91H183.883V103.739H170.742Z" fill="white"/>
</svg>
