<svg width="282" height="190" viewBox="0 0 282 190" fill="none" xmlns="http://www.w3.org/2000/svg">
<path d="M43.5746 146.224C44.1506 146.384 44.5933 146.656 44.9026 147.04C45.212 147.424 45.3666 147.92 45.3666 148.528C45.3666 149.648 44.94 150.507 44.0866 151.104C43.244 151.701 42.076 152 40.5826 152H35.3826L37.6226 140.8H42.4066C43.4946 140.8 44.3373 141.003 44.9346 141.408C45.5426 141.813 45.8466 142.405 45.8466 143.184C45.8466 143.941 45.6386 144.587 45.2226 145.12C44.8066 145.643 44.2573 146.011 43.5746 146.224ZM38.5986 141.776L37.7826 145.84H41.3506C42.3426 145.84 43.1373 145.632 43.7346 145.216C44.332 144.789 44.6306 144.181 44.6306 143.392C44.6306 142.848 44.4173 142.443 43.9906 142.176C43.5746 141.909 42.972 141.776 42.1826 141.776H38.5986ZM40.6786 151.024C41.8093 151.024 42.6786 150.811 43.2866 150.384C43.8946 149.957 44.1986 149.344 44.1986 148.544C44.1986 147.925 43.98 147.483 43.5426 147.216C43.116 146.949 42.4653 146.816 41.5906 146.816H37.5906L36.7586 151.024H40.6786ZM57.0931 143.584H58.2291L56.5491 152H55.4131L57.0931 143.584ZM51.7651 146.544C53.6531 146.544 54.5971 147.296 54.5971 148.8C54.5971 149.44 54.4318 150.005 54.1011 150.496C53.7811 150.976 53.3225 151.349 52.7251 151.616C52.1385 151.872 51.4558 152 50.6771 152H47.2211L48.9011 143.616H50.0371L49.4611 146.544H51.7651ZM50.6771 151.136C51.5091 151.136 52.1811 150.933 52.6931 150.528C53.2051 150.112 53.4611 149.568 53.4611 148.896C53.4611 148.395 53.2905 148.021 52.9491 147.776C52.6185 147.52 52.1118 147.392 51.4291 147.392H49.2851L48.5491 151.136H50.6771ZM63.688 152.08C62.8987 152.08 62.2107 151.936 61.624 151.648C61.0373 151.349 60.584 150.933 60.264 150.4C59.9547 149.856 59.8 149.227 59.8 148.512C59.8 147.563 60.008 146.709 60.424 145.952C60.84 145.195 61.4213 144.603 62.168 144.176C62.9147 143.739 63.7573 143.52 64.696 143.52C65.4747 143.52 66.1413 143.664 66.696 143.952C67.2613 144.229 67.6987 144.645 68.008 145.2L67.048 145.76C66.568 144.928 65.752 144.512 64.6 144.512C63.9067 144.512 63.2773 144.683 62.712 145.024C62.1573 145.365 61.72 145.835 61.4 146.432C61.0907 147.029 60.936 147.707 60.936 148.464C60.936 149.285 61.176 149.925 61.656 150.384C62.1467 150.843 62.84 151.072 63.736 151.072C64.28 151.072 64.7813 150.971 65.24 150.768C65.7093 150.555 66.0933 150.251 66.392 149.856L67.208 150.48C66.8347 150.981 66.3333 151.376 65.704 151.664C65.0853 151.941 64.4133 152.08 63.688 152.08ZM72.7021 152.08C71.9341 152.08 71.2621 151.936 70.6861 151.648C70.1101 151.349 69.6621 150.933 69.3421 150.4C69.0328 149.856 68.8781 149.227 68.8781 148.512C68.8781 147.563 69.0861 146.709 69.5021 145.952C69.9181 145.195 70.4941 144.603 71.2301 144.176C71.9768 143.739 72.8141 143.52 73.7421 143.52C74.9155 143.52 75.8435 143.84 76.5261 144.48C77.2195 145.12 77.5661 145.984 77.5661 147.072C77.5661 148.021 77.3581 148.88 76.9421 149.648C76.5261 150.405 75.9448 151.003 75.1981 151.44C74.4621 151.867 73.6301 152.08 72.7021 152.08ZM72.7821 151.072C73.4755 151.072 74.0995 150.907 74.6541 150.576C75.2088 150.235 75.6408 149.765 75.9501 149.168C76.2701 148.56 76.4301 147.883 76.4301 147.136C76.4301 146.315 76.1848 145.675 75.6941 145.216C75.2141 144.747 74.5368 144.512 73.6621 144.512C72.9688 144.512 72.3448 144.683 71.7901 145.024C71.2355 145.365 70.7981 145.84 70.4781 146.448C70.1688 147.045 70.0141 147.717 70.0141 148.464C70.0141 149.285 70.2541 149.925 70.7341 150.384C71.2248 150.843 71.9075 151.072 72.7821 151.072ZM83.911 147.728L86.615 152H85.319L83.015 148.256H81.031L80.279 152H79.143L80.839 143.584H81.975L81.223 147.28H83.095L86.823 143.584H88.103L83.911 147.728ZM91.9678 152.08C91.1998 152.08 90.5278 151.936 89.9518 151.648C89.3758 151.349 88.9278 150.933 88.6078 150.4C88.2984 149.856 88.1438 149.227 88.1438 148.512C88.1438 147.563 88.3518 146.709 88.7678 145.952C89.1838 145.195 89.7598 144.603 90.4958 144.176C91.2424 143.739 92.0798 143.52 93.0078 143.52C94.1811 143.52 95.1091 143.84 95.7917 144.48C96.4851 145.12 96.8318 145.984 96.8318 147.072C96.8318 148.021 96.6238 148.88 96.2078 149.648C95.7918 150.405 95.2104 151.003 94.4638 151.44C93.7278 151.867 92.8958 152.08 91.9678 152.08ZM92.0477 151.072C92.7411 151.072 93.3651 150.907 93.9198 150.576C94.4744 150.235 94.9064 149.765 95.2158 149.168C95.5358 148.56 95.6958 147.883 95.6958 147.136C95.6958 146.315 95.4504 145.675 94.9598 145.216C94.4798 144.747 93.8024 144.512 92.9278 144.512C92.2344 144.512 91.6104 144.683 91.0558 145.024C90.5011 145.365 90.0638 145.84 89.7438 146.448C89.4344 147.045 89.2798 147.717 89.2798 148.464C89.2798 149.285 89.5198 149.925 89.9998 150.384C90.4904 150.843 91.1731 151.072 92.0477 151.072ZM99.5926 148.112C99.582 148.187 99.5766 148.299 99.5766 148.448C99.5766 149.301 99.8166 149.952 100.297 150.4C100.787 150.848 101.513 151.072 102.473 151.072C103.027 151.072 103.545 150.981 104.025 150.8C104.515 150.608 104.915 150.347 105.225 150.016L105.737 150.832C105.342 151.227 104.846 151.536 104.249 151.76C103.662 151.973 103.038 152.08 102.377 152.08C101.161 152.08 100.201 151.76 99.4966 151.12C98.8033 150.48 98.4566 149.605 98.4566 148.496C98.4566 147.557 98.654 146.709 99.0486 145.952C99.454 145.195 100.009 144.603 100.713 144.176C101.427 143.739 102.227 143.52 103.113 143.52C104.233 143.52 105.123 143.84 105.785 144.48C106.446 145.109 106.777 145.979 106.777 147.088C106.777 147.397 106.739 147.739 106.665 148.112H99.5926ZM103.081 144.48C102.238 144.48 101.518 144.731 100.921 145.232C100.323 145.733 99.918 146.411 99.7046 147.264H105.705C105.715 147.189 105.721 147.088 105.721 146.96C105.721 146.171 105.481 145.563 105.001 145.136C104.521 144.699 103.881 144.48 103.081 144.48ZM22.5943 170.08C21.8049 170.08 21.1169 169.936 20.5303 169.648C19.9436 169.349 19.4903 168.933 19.1703 168.4C18.8609 167.856 18.7063 167.227 18.7063 166.512C18.7063 165.563 18.9143 164.709 19.3303 163.952C19.7463 163.195 20.3276 162.603 21.0743 162.176C21.8209 161.739 22.6636 161.52 23.6023 161.52C24.3809 161.52 25.0476 161.664 25.6023 161.952C26.1676 162.229 26.6049 162.645 26.9143 163.2L25.9543 163.76C25.4743 162.928 24.6583 162.512 23.5063 162.512C22.8129 162.512 22.1836 162.683 21.6183 163.024C21.0636 163.365 20.6263 163.835 20.3063 164.432C19.9969 165.029 19.8423 165.707 19.8423 166.464C19.8423 167.285 20.0823 167.925 20.5623 168.384C21.0529 168.843 21.7463 169.072 22.6423 169.072C23.1863 169.072 23.6876 168.971 24.1463 168.768C24.6156 168.555 24.9996 168.251 25.2983 167.856L26.1143 168.48C25.7409 168.981 25.2396 169.376 24.6103 169.664C23.9916 169.941 23.3196 170.08 22.5943 170.08ZM31.6084 170.08C30.8404 170.08 30.1684 169.936 29.5924 169.648C29.0164 169.349 28.5684 168.933 28.2484 168.4C27.939 167.856 27.7844 167.227 27.7844 166.512C27.7844 165.563 27.9924 164.709 28.4084 163.952C28.8244 163.195 29.4004 162.603 30.1364 162.176C30.883 161.739 31.7204 161.52 32.6484 161.52C33.8217 161.52 34.7497 161.84 35.4324 162.48C36.1257 163.12 36.4724 163.984 36.4724 165.072C36.4724 166.021 36.2644 166.88 35.8484 167.648C35.4324 168.405 34.851 169.003 34.1044 169.44C33.3684 169.867 32.5364 170.08 31.6084 170.08ZM31.6884 169.072C32.3817 169.072 33.0057 168.907 33.5604 168.576C34.115 168.235 34.547 167.765 34.8564 167.168C35.1764 166.56 35.3364 165.883 35.3364 165.136C35.3364 164.315 35.091 163.675 34.6004 163.216C34.1204 162.747 33.443 162.512 32.5684 162.512C31.875 162.512 31.251 162.683 30.6964 163.024C30.1417 163.365 29.7044 163.84 29.3844 164.448C29.075 165.045 28.9204 165.717 28.9204 166.464C28.9204 167.285 29.1604 167.925 29.6404 168.384C30.131 168.843 30.8137 169.072 31.6884 169.072ZM45.1064 169.008H46.4184L45.8264 172.032H44.7544L45.1544 170H37.6184L37.2184 172.032H36.1464L36.7384 169.008H37.1704C37.7357 168.976 38.2104 168.549 38.5944 167.728C38.9784 166.907 39.3517 165.781 39.7144 164.352L40.3864 161.584H46.5784L45.1064 169.008ZM40.7384 164.512C40.429 165.739 40.1304 166.72 39.8424 167.456C39.5544 168.192 39.197 168.709 38.7704 169.008H43.9704L45.2504 162.592H41.2024L40.7384 164.512ZM49.5926 166.112C49.582 166.187 49.5766 166.299 49.5766 166.448C49.5766 167.301 49.8166 167.952 50.2966 168.4C50.7873 168.848 51.5126 169.072 52.4726 169.072C53.0273 169.072 53.5446 168.981 54.0246 168.8C54.5153 168.608 54.9153 168.347 55.2246 168.016L55.7366 168.832C55.342 169.227 54.846 169.536 54.2486 169.76C53.662 169.973 53.038 170.08 52.3766 170.08C51.1606 170.08 50.2006 169.76 49.4966 169.12C48.8033 168.48 48.4566 167.605 48.4566 166.496C48.4566 165.557 48.654 164.709 49.0486 163.952C49.454 163.195 50.0086 162.603 50.7126 162.176C51.4273 161.739 52.2273 161.52 53.1126 161.52C54.2326 161.52 55.1233 161.84 55.7846 162.48C56.446 163.109 56.7766 163.979 56.7766 165.088C56.7766 165.397 56.7393 165.739 56.6646 166.112H49.5926ZM53.0806 162.48C52.238 162.48 51.518 162.731 50.9206 163.232C50.3233 163.733 49.918 164.411 49.7046 165.264H55.7046C55.7153 165.189 55.7206 165.088 55.7206 164.96C55.7206 164.171 55.4806 163.563 55.0006 163.136C54.5206 162.699 53.8806 162.48 53.0806 162.48ZM64.1694 161.52C64.884 161.52 65.5187 161.664 66.0734 161.952C66.6387 162.24 67.076 162.651 67.3854 163.184C67.6947 163.717 67.8494 164.347 67.8494 165.072C67.8494 166.021 67.6414 166.88 67.2254 167.648C66.82 168.405 66.2547 169.003 65.5294 169.44C64.804 169.867 63.988 170.08 63.0814 170.08C62.2814 170.08 61.6094 169.925 61.0654 169.616C60.5214 169.296 60.1267 168.837 59.8814 168.24L58.9214 173.104H57.7854L60.0734 161.584H61.1614L60.8894 162.928C61.2947 162.469 61.7747 162.123 62.3294 161.888C62.884 161.643 63.4974 161.52 64.1694 161.52ZM63.0654 169.072C63.7587 169.072 64.3774 168.907 64.9214 168.576C65.476 168.235 65.908 167.765 66.2174 167.168C66.5374 166.571 66.6974 165.893 66.6974 165.136C66.6974 164.315 66.452 163.675 65.9614 163.216C65.4814 162.747 64.804 162.512 63.9294 162.512C63.236 162.512 62.612 162.683 62.0574 163.024C61.5134 163.355 61.0814 163.824 60.7614 164.432C60.452 165.029 60.2974 165.707 60.2974 166.464C60.2974 167.285 60.5374 167.925 61.0174 168.384C61.508 168.843 62.1907 169.072 63.0654 169.072ZM78.2634 165.76L80.4554 170H79.1274L77.2714 166.224H75.4634L74.6954 170H73.5594L74.3114 166.224H72.5354L69.2074 170H67.7834L71.7034 165.632L69.7354 161.584H70.9354L72.6794 165.296H74.5034L75.2394 161.584H76.3914L75.6394 165.296H77.4314L80.6634 161.584H81.9434L78.2634 165.76ZM91.5529 161.584L89.8729 170H88.7849L89.0569 168.672C88.6515 169.12 88.1715 169.467 87.6169 169.712C87.0622 169.957 86.4489 170.08 85.7769 170.08C85.0622 170.08 84.4275 169.936 83.8729 169.648C83.3182 169.36 82.8862 168.949 82.5769 168.416C82.2675 167.872 82.1129 167.237 82.1129 166.512C82.1129 165.563 82.3155 164.709 82.7209 163.952C83.1369 163.195 83.7075 162.603 84.4329 162.176C85.1582 161.739 85.9689 161.52 86.8649 161.52C87.6649 161.52 88.3369 161.68 88.8809 162C89.4249 162.309 89.8195 162.757 90.0649 163.344L90.4169 161.584H91.5529ZM86.0169 169.072C86.7102 169.072 87.3342 168.907 87.8889 168.576C88.4435 168.235 88.8755 167.765 89.1849 167.168C89.5049 166.56 89.6649 165.883 89.6649 165.136C89.6649 164.315 89.4195 163.675 88.9289 163.216C88.4489 162.747 87.7715 162.512 86.8969 162.512C86.2035 162.512 85.5795 162.683 85.0249 163.024C84.4702 163.365 84.0329 163.84 83.7129 164.448C83.4035 165.045 83.2489 165.717 83.2489 166.464C83.2489 167.285 83.4889 167.925 83.9689 168.384C84.4595 168.843 85.1422 169.072 86.0169 169.072ZM94.7761 161.584H95.9121L95.1761 165.312H100.456L101.208 161.584H102.344L100.664 170H99.5281L100.264 166.288H94.9841L94.2321 170H93.0961L94.7761 161.584ZM105.573 161.584H106.709L105.349 168.384L112.261 161.584H113.349L111.669 170H110.501L111.893 163.2L104.981 170H103.877L105.573 161.584ZM116.077 166.112C116.066 166.187 116.061 166.299 116.061 166.448C116.061 167.301 116.301 167.952 116.781 168.4C117.272 168.848 117.997 169.072 118.957 169.072C119.512 169.072 120.029 168.981 120.509 168.8C121 168.608 121.4 168.347 121.709 168.016L122.221 168.832C121.826 169.227 121.33 169.536 120.733 169.76C120.146 169.973 119.522 170.08 118.861 170.08C117.645 170.08 116.685 169.76 115.981 169.12C115.288 168.48 114.941 167.605 114.941 166.496C114.941 165.557 115.138 164.709 115.533 163.952C115.938 163.195 116.493 162.603 117.197 162.176C117.912 161.739 118.712 161.52 119.597 161.52C120.717 161.52 121.608 161.84 122.269 162.48C122.93 163.109 123.261 163.979 123.261 165.088C123.261 165.397 123.224 165.739 123.149 166.112H116.077ZM119.565 162.48C118.722 162.48 118.002 162.731 117.405 163.232C116.808 163.733 116.402 164.411 116.189 165.264H122.189C122.2 165.189 122.205 165.088 122.205 164.96C122.205 164.171 121.965 163.563 121.485 163.136C121.005 162.699 120.365 162.48 119.565 162.48ZM55.9888 179.584L54.3088 188H53.2688L54.5968 181.344L50.0688 186.976H49.5568L47.2848 181.28L45.9408 188H44.9008L46.5808 179.584H47.7168L50.0688 185.648L54.9168 179.584H55.9888ZM67.0138 179.584L65.3338 188H64.2458L64.5178 186.672C64.1125 187.12 63.6325 187.467 63.0778 187.712C62.5231 187.957 61.9098 188.08 61.2378 188.08C60.5231 188.08 59.8885 187.936 59.3338 187.648C58.7791 187.36 58.3471 186.949 58.0378 186.416C57.7285 185.872 57.5738 185.237 57.5738 184.512C57.5738 183.563 57.7765 182.709 58.1818 181.952C58.5978 181.195 59.1685 180.603 59.8938 180.176C60.6191 179.739 61.4298 179.52 62.3258 179.52C63.1258 179.52 63.7978 179.68 64.3418 180C64.8858 180.309 65.2805 180.757 65.5258 181.344L65.8778 179.584H67.0138ZM61.4778 187.072C62.1711 187.072 62.7951 186.907 63.3498 186.576C63.9045 186.235 64.3365 185.765 64.6458 185.168C64.9658 184.56 65.1258 183.883 65.1258 183.136C65.1258 182.315 64.8805 181.675 64.3898 181.216C63.9098 180.747 63.2325 180.512 62.3578 180.512C61.6645 180.512 61.0405 180.683 60.4858 181.024C59.9311 181.365 59.4938 181.84 59.1738 182.448C58.8645 183.045 58.7098 183.717 58.7098 184.464C58.7098 185.285 58.9498 185.925 59.4298 186.384C59.9205 186.843 60.6031 187.072 61.4778 187.072ZM72.4771 188.08C71.6877 188.08 70.9997 187.936 70.4131 187.648C69.8264 187.349 69.3731 186.933 69.0531 186.4C68.7437 185.856 68.5891 185.227 68.5891 184.512C68.5891 183.563 68.7971 182.709 69.2131 181.952C69.6291 181.195 70.2104 180.603 70.9571 180.176C71.7037 179.739 72.5464 179.52 73.4851 179.52C74.2637 179.52 74.9304 179.664 75.4851 179.952C76.0504 180.229 76.4877 180.645 76.7971 181.2L75.8371 181.76C75.3571 180.928 74.5411 180.512 73.3891 180.512C72.6957 180.512 72.0664 180.683 71.5011 181.024C70.9464 181.365 70.5091 181.835 70.1891 182.432C69.8797 183.029 69.7251 183.707 69.7251 184.464C69.7251 185.285 69.9651 185.925 70.4451 186.384C70.9357 186.843 71.6291 187.072 72.5251 187.072C73.0691 187.072 73.5704 186.971 74.0291 186.768C74.4984 186.555 74.8824 186.251 75.1811 185.856L75.9971 186.48C75.6237 186.981 75.1224 187.376 74.4931 187.664C73.8744 187.941 73.2024 188.08 72.4771 188.08ZM86.0706 179.584L84.3746 188H83.2386L84.7106 180.592H80.6946L80.1826 182.672C79.8519 183.952 79.5319 184.987 79.2226 185.776C78.9132 186.555 78.5612 187.141 78.1666 187.536C77.7826 187.92 77.3292 188.112 76.8066 188.112C76.5932 188.112 76.3159 188.069 75.9746 187.984L76.2466 187.008C76.4386 187.051 76.5666 187.072 76.6306 187.072C77.1746 187.072 77.6332 186.715 78.0066 186C78.3906 185.275 78.7799 184.128 79.1746 182.56L79.9106 179.584H86.0706ZM97.0919 179.584L95.4119 188H94.3239L94.5959 186.672C94.1906 187.12 93.7106 187.467 93.1559 187.712C92.6013 187.957 91.9879 188.08 91.3159 188.08C90.6013 188.08 89.9666 187.936 89.4119 187.648C88.8573 187.36 88.4253 186.949 88.1159 186.416C87.8066 185.872 87.6519 185.237 87.6519 184.512C87.6519 183.563 87.8546 182.709 88.2599 181.952C88.6759 181.195 89.2466 180.603 89.9719 180.176C90.6973 179.739 91.5079 179.52 92.4039 179.52C93.2039 179.52 93.8759 179.68 94.4199 180C94.9639 180.309 95.3586 180.757 95.6039 181.344L95.9559 179.584H97.0919ZM91.5559 187.072C92.2493 187.072 92.8733 186.907 93.4279 186.576C93.9826 186.235 94.4146 185.765 94.7239 185.168C95.0439 184.56 95.2039 183.883 95.2039 183.136C95.2039 182.315 94.9586 181.675 94.4679 181.216C93.9879 180.747 93.3106 180.512 92.4359 180.512C91.7426 180.512 91.1186 180.683 90.5639 181.024C90.0093 181.365 89.5719 181.84 89.2519 182.448C88.9426 183.045 88.7879 183.717 88.7879 184.464C88.7879 185.285 89.0279 185.925 89.5079 186.384C89.9986 186.843 90.6813 187.072 91.5559 187.072Z" fill="#576366"/>
<path d="M112 109L178 186H277" stroke="#576366"/>
<circle cx="73.5" cy="61.5" r="61" fill="#fff" stroke="#576366"/>
<circle r="4" transform="matrix(1 0 0 -1 277.5 185.5)" fill="#fff" stroke="#576366"/>
<circle r="4" transform="matrix(1 0 0 -1 111.5 108.5)" fill="#fff" stroke="#576366"/>
<path d="M66.2406 43.8513C66.0761 43.5466 65.6965 43.4337 65.3922 43.5979C65.2843 43.6559 65.1968 43.7441 65.1388 43.8513C64.5326 44.9731 63.4858 46.6658 62.2737 48.6241C57.7665 55.8913 51 66.8696 51 73.2405C51.0085 81.35 57.5802 87.9214 65.6897 87.9299C73.7106 88.0191 80.2851 81.5888 80.374 73.5679C80.375 73.4586 80.375 73.3497 80.374 73.2405C80.374 66.8496 73.2371 55.3055 68.9802 48.404C67.8082 46.5206 66.8013 44.893 66.2406 43.8513ZM65.6897 86.6778C58.2716 86.6693 52.2602 80.6576 52.2521 73.2405C52.2521 67.2302 59.1936 55.9914 63.3406 49.2805C64.2521 47.7778 65.0737 46.4758 65.6897 45.4188C66.2606 46.3903 67.0167 47.6177 67.9082 49.06C72.1054 55.8462 79.1219 67.2054 79.1219 73.2405C79.2027 80.5813 73.3175 86.5971 65.9767 86.6778C65.881 86.6788 65.7854 86.6788 65.6897 86.6778Z" fill="#576366"/>
<path d="M65.0635 81.7146C65.0635 82.06 65.344 82.3405 65.6897 82.3405C70.7444 82.3351 74.8412 78.2403 74.8501 73.1852C74.8501 72.8399 74.5695 72.5594 74.2239 72.5594C73.8782 72.5594 73.5976 72.8399 73.5976 73.1852C73.5922 77.5507 70.0548 81.0881 65.6897 81.0935C65.3454 81.0928 65.0662 81.3703 65.0635 81.7146Z" fill="#576366"/>
<path d="M88.5777 39.2585C87.8266 38.0468 87.1804 36.9949 86.8198 36.3287C86.6556 36.0244 86.2761 35.9111 85.9714 36.0753C85.8636 36.1333 85.776 36.2215 85.718 36.3287C85.3323 37.0448 84.6563 38.1367 83.875 39.399C80.9652 44.1118 76.5627 51.2334 76.5627 55.4256C76.5767 60.7782 80.9163 65.1114 86.2689 65.1168C91.5713 65.1755 95.9164 60.9244 95.9751 55.622C95.9761 55.5514 95.9761 55.4809 95.9751 55.4106C95.9751 51.2236 91.5177 44.0216 88.5777 39.2585ZM86.2689 63.8648C81.6043 63.8563 77.8253 60.0753 77.8199 55.4106C77.8199 51.5893 82.2824 44.3923 84.9466 40.0601C85.4477 39.2487 85.9032 38.5126 86.274 37.8864C86.6095 38.4573 87.0101 39.1385 87.5112 39.9299C90.2056 44.2923 94.7183 51.5893 94.7183 55.4259C94.7597 60.0451 91.0489 63.8234 86.4304 63.8648C86.3761 63.8651 86.3225 63.8651 86.2689 63.8648Z" fill="#576366"/>
<path d="M91.7783 54.7495C91.4326 54.7495 91.152 55.03 91.152 55.3757C91.149 58.0712 88.9644 60.2557 86.2689 60.2588C85.9236 60.2588 85.6431 60.5393 85.6431 60.8847C85.6431 61.2303 85.9236 61.5109 86.2689 61.5109C89.6551 61.5054 92.3987 58.7618 92.4041 55.3757C92.4041 55.0293 92.1236 54.7495 91.7783 54.7495Z" fill="#576366"/>
</svg>
