<svg width="22" height="22" viewBox="0 0 22 22" fill="none" xmlns="http://www.w3.org/2000/svg">
<path d="M20.8881 15.9206V18.9206C20.8892 19.1991 20.8322 19.4748 20.7206 19.7299C20.6091 19.9851 20.4454 20.2142 20.2402 20.4025C20.035 20.5907 19.7927 20.7341 19.5289 20.8233C19.265 20.9125 18.9855 20.9457 18.7081 20.9206C15.631 20.5862 12.6751 19.5347 10.0781 17.8506C7.66194 16.3152 5.61345 14.2668 4.07812 11.8506C2.38809 9.24179 1.33636 6.27158 1.00812 3.18059C0.983127 2.90405 1.01599 2.62535 1.10462 2.36221C1.19324 2.09907 1.33569 1.85727 1.52288 1.65221C1.71008 1.44714 1.93792 1.28329 2.19191 1.17111C2.44589 1.05892 2.72046 1.00085 2.99812 1.00059H5.99812C6.48342 0.995809 6.95391 1.16766 7.32188 1.48412C7.68985 1.80057 7.93019 2.24003 7.99812 2.72059C8.12474 3.68065 8.35957 4.62331 8.69812 5.53059C8.83266 5.88851 8.86178 6.2775 8.78202 6.65147C8.70227 7.02543 8.51698 7.3687 8.24812 7.64059L6.97812 8.91058C8.40167 11.4141 10.4746 13.487 12.9781 14.9106L14.2481 13.6406C14.52 13.3717 14.8633 13.1864 15.2372 13.1067C15.6112 13.0269 16.0002 13.056 16.3581 13.1906C17.2654 13.5291 18.2081 13.764 19.1681 13.8906C19.6539 13.9591 20.0975 14.2038 20.4146 14.5781C20.7318 14.9524 20.9003 15.4302 20.8881 15.9206Z" stroke="#576366" stroke-width="2" stroke-linecap="round" stroke-linejoin="round"/>
</svg>
