<svg width="54" height="51" viewBox="0 0 54 51" fill="none" xmlns="http://www.w3.org/2000/svg">
<path d="M34.8263 36.6707C34.7418 36.655 34.6549 36.656 34.5708 36.6738C34.4866 36.6915 34.4068 36.7257 34.3358 36.7744C34.2649 36.823 34.2042 36.8852 34.1573 36.9573C34.1104 37.0294 34.0782 37.11 34.0624 37.1946C34.0268 37.3852 33.9996 37.5798 33.9812 37.7729C33.9648 37.9457 34.0176 38.118 34.1281 38.2518C34.2386 38.3857 34.3977 38.4702 34.5705 38.4868C34.5915 38.4887 34.6125 38.4897 34.6333 38.4897C34.796 38.4895 34.9529 38.4287 35.0733 38.3191C35.1936 38.2095 35.2689 38.0591 35.2843 37.897C35.299 37.7426 35.3209 37.587 35.3498 37.4344C35.3816 37.2637 35.3444 37.0874 35.2462 36.9442C35.148 36.801 34.997 36.7026 34.8263 36.6707Z" fill="#576366"/>
<path d="M38.1819 32.3322C36.7231 32.9012 35.5146 33.9711 34.7728 35.3501C34.7322 35.4258 34.7069 35.5089 34.6983 35.5944C34.6898 35.68 34.6981 35.7664 34.723 35.8487C34.7478 35.931 34.7886 36.0077 34.8431 36.0742C34.8976 36.1407 34.9646 36.1959 35.0404 36.2366C35.1161 36.2772 35.1992 36.3025 35.2847 36.3111C35.3703 36.3196 35.4567 36.3112 35.539 36.2864C35.6213 36.2616 35.698 36.2207 35.7645 36.1663C35.831 36.1118 35.8862 36.0448 35.9269 35.969C36.5213 34.8644 37.4897 34.0076 38.6585 33.5521C38.8202 33.4889 38.9502 33.364 39.0199 33.2049C39.0896 33.0459 39.0933 32.8656 39.0301 32.7039C38.9669 32.5421 38.842 32.4121 38.683 32.3424C38.5239 32.2727 38.3436 32.269 38.1819 32.3322Z" fill="#576366"/>
<path d="M35.68 15.502C35.6835 15.3472 35.6941 15.1903 35.7114 15.036C35.721 14.9506 35.7137 14.8641 35.6899 14.7815C35.6661 14.6988 35.6262 14.6217 35.5726 14.5545C35.519 14.4873 35.4527 14.4313 35.3774 14.3897C35.3021 14.3481 35.2194 14.3218 35.134 14.3121C35.0485 14.3025 34.962 14.3098 34.8794 14.3336C34.7968 14.3575 34.7196 14.3973 34.6524 14.4509C34.5852 14.5046 34.5292 14.5709 34.4876 14.6462C34.446 14.7214 34.4197 14.8041 34.4101 14.8896C34.3882 15.0826 34.3751 15.2786 34.3708 15.4723C34.3688 15.5583 34.3838 15.6438 34.4149 15.724C34.446 15.8042 34.4926 15.8774 34.552 15.9396C34.6114 16.0018 34.6825 16.0516 34.7612 16.0863C34.8399 16.121 34.9246 16.1399 35.0106 16.1418H35.0257C35.1967 16.1418 35.3609 16.0748 35.4832 15.9552C35.6054 15.8357 35.6761 15.673 35.68 15.502Z" fill="#576366"/>
<path d="M35.3164 13.8638C35.4749 13.9346 35.6551 13.9395 35.8173 13.8775C35.9795 13.8155 36.1104 13.6916 36.1812 13.5331C36.6947 12.3886 37.5989 11.4643 38.7318 10.9258C38.8094 10.8888 38.879 10.8369 38.9366 10.773C38.9941 10.7092 39.0386 10.6346 39.0673 10.5536C39.0961 10.4725 39.1086 10.3866 39.1041 10.3007C39.0997 10.2149 39.0784 10.1307 39.0414 10.0531C39.0044 9.97546 38.9525 9.90587 38.8886 9.8483C38.8248 9.79073 38.7502 9.7463 38.6692 9.71755C38.5881 9.6888 38.5022 9.6763 38.4163 9.68075C38.3305 9.6852 38.2463 9.70652 38.1687 9.74349C36.7547 10.416 35.6263 11.57 34.9857 12.9987C34.9506 13.0772 34.9313 13.1619 34.929 13.2478C34.9266 13.3338 34.9412 13.4194 34.9719 13.4997C35.0026 13.58 35.0488 13.6535 35.1079 13.716C35.167 13.7785 35.2379 13.8287 35.3164 13.8638Z" fill="#576366"/>
<path d="M11.0763 14.2872C10.9041 14.2651 10.7302 14.3124 10.5928 14.4186C10.4554 14.5248 10.3658 14.6812 10.3437 14.8535C10.3191 15.046 10.3028 15.2417 10.2954 15.4354C10.2921 15.5214 10.3058 15.6071 10.3356 15.6878C10.3654 15.7684 10.4109 15.8424 10.4693 15.9055C10.5278 15.9686 10.5981 16.0196 10.6762 16.0555C10.7544 16.0914 10.8388 16.1116 10.9247 16.1149H10.9502C11.1194 16.1148 11.2821 16.0491 11.404 15.9317C11.5259 15.8143 11.5976 15.6542 11.6041 15.4851C11.61 15.3301 11.623 15.1735 11.6426 15.0197C11.6646 14.8474 11.6173 14.6735 11.5111 14.5362C11.4049 14.3988 11.2485 14.3093 11.0763 14.2872Z" fill="#576366"/>
<path d="M14.1807 9.76553C12.7565 10.4164 11.6105 11.5531 10.9481 12.9719C10.9118 13.0499 10.8913 13.1342 10.8876 13.2202C10.8839 13.3061 10.8971 13.3919 10.9266 13.4727C10.9561 13.5534 11.0012 13.6276 11.0593 13.691C11.1175 13.7543 11.1875 13.8056 11.2655 13.8419C11.3434 13.8782 11.4278 13.8988 11.5137 13.9025C11.5996 13.9062 11.6854 13.8929 11.7662 13.8634C11.847 13.834 11.9211 13.7889 11.9845 13.7307C12.0479 13.6726 12.0991 13.6025 12.1354 13.5246C12.6663 12.388 13.5846 11.4777 14.7257 10.9567C14.8039 10.9209 14.8743 10.8701 14.9328 10.8071C14.9914 10.7441 15.0369 10.6702 15.0669 10.5896C15.0969 10.509 15.1107 10.4233 15.1076 10.3374C15.1044 10.2514 15.0844 10.167 15.0486 10.0888C15.0128 10.0106 14.962 9.9402 14.899 9.88166C14.836 9.82312 14.7621 9.77755 14.6815 9.74757C14.5188 9.68701 14.3386 9.69359 14.1807 9.76586V9.76553Z" fill="#576366"/>
<path d="M50.7375 5.97346C51.4135 5.97346 52.069 5.74162 52.5946 5.31665C53.1203 4.89167 53.4843 4.29926 53.6259 3.6383C53.7675 2.97734 53.6781 2.28781 53.3726 1.6848C53.0672 1.08179 52.5642 0.601776 51.9475 0.324882C51.3309 0.047987 50.6379 -0.00903963 49.9843 0.16332C49.3307 0.335679 48.756 0.726997 48.3561 1.27196C47.9561 1.81692 47.7552 2.48256 47.7869 3.15778C47.8185 3.833 48.0807 4.47694 48.5299 4.98214L43.6931 9.80038C43.0751 9.14402 42.3297 8.62066 41.5025 8.26234C40.6753 7.90402 39.7837 7.71827 38.8823 7.71646C37.9808 7.71465 37.0884 7.89682 36.2598 8.25182C35.4312 8.60682 34.6837 9.12718 34.0631 9.78106L29.0504 4.69535C29.419 4.19323 29.6176 3.58648 29.6171 2.96359C29.6187 2.48471 29.5037 2.01263 29.2823 1.58803C29.0608 1.16343 28.7395 0.799027 28.3459 0.526219C27.9523 0.253412 27.4983 0.0803758 27.023 0.0220178C26.5477 -0.0363401 26.0653 0.0217295 25.6175 0.191224C25.1696 0.360719 24.7696 0.636557 24.452 0.994977C24.1344 1.3534 23.9087 1.78365 23.7944 2.24868C23.68 2.71371 23.6804 3.19957 23.7956 3.6644C23.9107 4.12923 24.1371 4.5591 24.4553 4.91699L19.6184 9.73523C19.0002 9.07851 18.2543 8.55494 17.4266 8.19661C16.5989 7.83827 15.7067 7.65272 14.8047 7.65131C13.9027 7.6499 13.01 7.83266 12.1811 8.18841C11.3523 8.54415 10.6048 9.06538 9.98447 9.72017L5.16219 4.91742C5.64404 4.37528 5.90951 3.67476 5.90799 2.94944C5.90648 2.22412 5.63808 1.52472 5.15397 0.984594C4.66986 0.444468 4.00391 0.101395 3.28308 0.0207829C2.56225 -0.0598289 1.83696 0.12766 1.2455 0.547503C0.654037 0.967346 0.237772 1.59018 0.0760686 2.29725C-0.0856346 3.00432 0.0185344 3.74617 0.368715 4.38136C0.718896 5.01655 1.29059 5.50065 1.97481 5.74137C2.65903 5.98208 3.4079 5.96257 4.07865 5.68656L9.1743 10.7626C8.51811 11.8069 8.16951 13.015 8.16847 14.2484C8.16743 15.4817 8.51398 16.6904 9.16841 17.7359L4.07865 22.8059C3.40766 22.5297 2.65848 22.5101 1.97398 22.7509C1.28947 22.9917 0.71752 23.4759 0.367172 24.1113C0.0168244 24.7468 -0.0874103 25.4889 0.0743424 26.1963C0.236095 26.9036 0.65252 27.5267 1.24422 27.9467C1.83592 28.3667 2.5615 28.5543 3.28261 28.4736C4.00373 28.393 4.66994 28.0497 5.15422 27.5094C5.6385 26.969 5.90696 26.2693 5.90843 25.5437C5.90991 24.8181 5.64427 24.1173 5.16219 23.575L9.9765 18.7794C10.597 19.4364 11.3454 19.9596 12.1757 20.3167C13.0059 20.6739 13.9004 20.8574 14.8042 20.8559C15.7079 20.8545 16.6019 20.6682 17.431 20.3085C18.2601 19.9488 19.0068 19.4233 19.6253 18.7643L24.4791 23.5992C24.0632 24.1071 23.8287 24.7393 23.8128 25.3956C23.7968 26.0519 24.0004 26.6947 24.3911 27.2222C24.7819 27.7497 25.3375 28.1317 25.97 28.3076C26.6024 28.4836 27.2755 28.4434 27.8825 28.1936L32.9783 33.2699C32.3221 34.3142 31.9735 35.5223 31.9725 36.7557C31.9714 37.989 32.3179 39.1977 32.9723 40.2432L27.8827 45.3132C27.2117 45.0369 26.4624 45.0173 25.7777 45.258C25.0931 45.4987 24.521 45.9831 24.1705 46.6186C23.8201 47.2541 23.7158 47.9963 23.8775 48.7038C24.0393 49.4113 24.4557 50.0345 25.0475 50.4546C25.6393 50.8747 26.365 51.0623 27.0862 50.9817C27.8075 50.901 28.4738 50.5578 28.9582 50.0173C29.4425 49.4769 29.711 48.7771 29.7125 48.0514C29.714 47.3256 29.4483 46.6247 28.9662 46.0823L33.7805 41.2867C34.401 41.9438 35.1494 42.467 35.9796 42.8241C36.8099 43.1813 37.7044 43.3648 38.6082 43.3634C39.512 43.362 40.4059 43.1757 41.2351 42.8159C42.0642 42.4562 42.8109 41.9307 43.4294 41.2716L48.2589 46.0823C47.7772 46.6244 47.5118 47.3248 47.5133 48.0501C47.5149 48.7753 47.7833 49.4745 48.2673 50.0146C48.7514 50.5546 49.4173 50.8975 50.138 50.9781C50.8587 51.0587 51.5839 50.8712 52.1752 50.4514C52.7666 50.0316 53.1828 49.4088 53.3444 48.7018C53.5061 47.9949 53.4019 47.2531 53.0517 46.6181C52.7016 45.983 52.13 45.499 51.4458 45.2583C50.7617 45.0177 50.013 45.0372 49.3423 45.3132L44.2351 40.2254C44.8821 39.1839 45.2245 37.9819 45.2235 36.7558C45.2224 35.5296 44.8779 34.3283 44.2291 33.2879L49.3428 28.194C49.7835 28.3758 50.2619 28.448 50.7367 28.4042C51.2115 28.3603 51.6686 28.2019 52.0687 27.9425C52.4688 27.683 52.7999 27.3303 53.0335 26.9147C53.2672 26.499 53.3965 26.0328 53.4102 25.5562C53.424 25.0796 53.3218 24.6067 53.1125 24.1783C52.9032 23.7498 52.593 23.3786 52.2085 23.0965C51.8241 22.8145 51.3769 22.6299 50.9054 22.5588C50.4339 22.4877 49.9522 22.5321 49.5016 22.6882L44.5079 17.78C45.1541 16.7385 45.4958 15.537 45.4944 14.3115C45.4931 13.0859 45.1487 11.8851 44.5002 10.8452L49.6138 5.75127C49.9702 5.89816 50.352 5.97365 50.7375 5.97346ZM2.95441 4.5992C2.63131 4.59744 2.31596 4.50001 2.04816 4.31921C1.78037 4.13842 1.57212 3.88236 1.44969 3.58333C1.32727 3.28431 1.29615 2.95573 1.36027 2.63904C1.42439 2.32236 1.58087 2.03175 1.80996 1.8039C2.03906 1.57605 2.33051 1.42116 2.64755 1.35877C2.96458 1.29638 3.29299 1.32929 3.59133 1.45335C3.88968 1.5774 4.14461 1.78704 4.32394 2.05582C4.50327 2.3246 4.59897 2.64047 4.59898 2.96359C4.5973 3.39841 4.42321 3.81482 4.11491 4.12145C3.8066 4.42809 3.38924 4.5999 2.95441 4.5992ZM2.95441 27.1645C2.63131 27.1627 2.31596 27.0653 2.04816 26.8845C1.78037 26.7037 1.57212 26.4476 1.44969 26.1486C1.32727 25.8496 1.29615 25.521 1.36027 25.2043C1.42439 24.8876 1.58087 24.597 1.80996 24.3692C2.03906 24.1413 2.33051 23.9864 2.64755 23.924C2.96458 23.8616 3.29299 23.8946 3.59133 24.0186C3.88968 24.1427 4.14461 24.3523 4.32394 24.6211C4.50327 24.8899 4.59897 25.2057 4.59898 25.5288C4.5973 25.9637 4.42321 26.3801 4.11491 26.6867C3.8066 26.9933 3.38924 27.1652 2.95441 27.1645ZM26.7587 49.6719C26.4356 49.6701 26.1202 49.5727 25.8524 49.3919C25.5845 49.2111 25.3763 48.9551 25.2538 48.656C25.1314 48.357 25.1002 48.0283 25.1644 47.7116C25.2285 47.3949 25.385 47.1043 25.6141 46.8764C25.8432 46.6485 26.1347 46.4936 26.4517 46.4312C26.7688 46.3688 27.0973 46.4018 27.3956 46.5258C27.694 46.6499 27.9489 46.8596 28.1283 47.1284C28.3076 47.3972 28.4033 47.7131 28.4033 48.0363C28.4016 48.4711 28.2275 48.8875 27.9192 49.1941C27.6109 49.5008 27.1936 49.6726 26.7587 49.6719ZM50.467 46.4005C50.7901 46.4023 51.1055 46.4997 51.3733 46.6805C51.6412 46.8613 51.8494 47.1174 51.9719 47.4164C52.0943 47.7154 52.1255 48.0441 52.0614 48.3608C51.9973 48.6775 51.8408 48.9681 51.6117 49.196C51.3826 49.4239 51.0911 49.5788 50.774 49.6412C50.457 49.7036 50.1285 49.6707 49.8302 49.5466C49.5318 49.4226 49.2768 49.2129 49.0975 48.9441C48.9181 48.6753 48.8224 48.3594 48.8224 48.0363C48.8241 47.6015 48.9981 47.1851 49.3063 46.8785C49.6145 46.5718 50.0318 46.4 50.4666 46.4005H50.467ZM38.8687 9.026C39.9145 9.03053 40.9356 9.34479 41.8029 9.92911C42.6703 10.5134 43.3451 11.3416 43.7422 12.3091C44.1393 13.2766 44.2408 14.3401 44.034 15.3653C43.8272 16.3904 43.3213 17.3314 42.5802 18.0693C41.8391 18.8072 40.896 19.309 39.87 19.5114C38.8439 19.7137 37.7809 19.6076 36.8151 19.2063C35.8493 18.8051 35.024 18.1267 34.4435 17.2568C33.8629 16.3869 33.5531 15.3646 33.5531 14.3187C33.5577 12.9125 34.1199 11.5654 35.1164 10.5732C36.113 9.58094 37.4624 9.02452 38.8687 9.026ZM26.6627 1.32797C26.9858 1.32974 27.3011 1.42716 27.5689 1.60796C27.8367 1.78875 28.045 2.04482 28.1674 2.34384C28.2898 2.64286 28.3209 2.97144 28.2568 3.28813C28.1927 3.60482 28.0362 3.89542 27.8071 4.12327C27.578 4.35112 27.2866 4.50601 26.9696 4.5684C26.6525 4.63079 26.3241 4.59788 26.0258 4.47382C25.7274 4.34977 25.4725 4.14013 25.2932 3.87135C25.1138 3.60257 25.0181 3.2867 25.0181 2.96359C25.0198 2.52876 25.1939 2.11235 25.5022 1.80572C25.8105 1.49909 26.2279 1.32727 26.6627 1.32797ZM14.7939 19.5464C13.7481 19.5419 12.727 19.2276 11.8597 18.6433C10.9923 18.059 10.3175 17.2308 9.92039 16.2633C9.52331 15.2958 9.42176 14.2323 9.62856 13.2072C9.83537 12.182 10.3412 11.241 11.0824 10.5031C11.8235 9.76523 12.7666 9.26341 13.7926 9.06104C14.8187 8.85867 15.8817 8.96482 16.8475 9.36608C17.8133 9.76733 18.6385 10.4457 19.2191 11.3156C19.7997 12.1855 20.1095 13.2079 20.1095 14.2537C20.1049 15.66 19.5426 17.007 18.5461 17.9992C17.5496 18.9914 16.2001 19.5479 14.7939 19.5464ZM20.4307 17.718C21.0777 16.6764 21.4201 15.4745 21.4191 14.2484C21.418 13.0222 21.0735 11.8209 20.4247 10.7805L25.5383 5.68656C25.9422 5.85267 26.3779 5.92723 26.8141 5.90487C27.2503 5.88251 27.676 5.76379 28.0608 5.55724L33.2519 10.8235C32.5946 11.868 32.2451 13.0767 32.2436 14.3108C32.2421 15.5449 32.5887 16.7545 33.2435 17.8006L28.1501 22.8741C27.7486 22.6597 27.3029 22.541 26.8479 22.5272C26.393 22.5134 25.941 22.605 25.5272 22.7947L20.4307 17.718ZM26.7587 27.1066C26.4356 27.1049 26.1203 27.0074 25.8525 26.8266C25.5847 26.6458 25.3764 26.3898 25.254 26.0908C25.1316 25.7917 25.1005 25.4632 25.1646 25.1465C25.2287 24.8298 25.3852 24.5392 25.6143 24.3113C25.8434 24.0835 26.1348 23.9286 26.4519 23.8662C26.7689 23.8038 27.0973 23.8367 27.3956 23.9608C27.694 24.0848 27.9489 24.2945 28.1282 24.5632C28.3076 24.832 28.4033 25.1479 28.4033 25.471C28.4016 25.9058 28.2275 26.3222 27.9192 26.6289C27.6109 26.9355 27.1936 27.1073 26.7587 27.1066ZM38.5981 42.0538C37.5523 42.0493 36.5312 41.735 35.6639 41.1507C34.7965 40.5664 34.1217 39.7382 33.7247 38.7707C33.3276 37.8031 33.2261 36.7397 33.4329 35.7145C33.6397 34.6893 34.1456 33.7484 34.8867 33.0105C35.6278 32.2726 36.5709 31.7708 37.597 31.5685C38.623 31.3661 39.686 31.4722 40.6518 31.8735C41.6176 32.2748 42.4429 32.9532 43.0234 33.823C43.604 34.6929 43.9138 35.7153 43.9138 36.7611C43.9092 38.1675 43.3469 39.5146 42.3503 40.5069C41.3536 41.4991 40.004 42.0555 38.5976 42.0538H38.5981ZM50.4666 23.8354C50.7897 23.8372 51.105 23.9346 51.3728 24.1154C51.6406 24.2962 51.8489 24.5522 51.9713 24.8513C52.0937 25.1503 52.1248 25.4789 52.0607 25.7956C51.9966 26.1122 51.8401 26.4028 51.611 26.6307C51.3819 26.8585 51.0905 27.0134 50.7734 27.0758C50.4564 27.1382 50.128 27.1053 49.8296 26.9812C49.5313 26.8572 49.2764 26.6476 49.097 26.3788C48.9177 26.11 48.822 25.7941 48.822 25.471C48.8236 25.0362 48.9977 24.6197 49.306 24.3131C49.6143 24.0065 50.0317 23.8347 50.4666 23.8354ZM48.363 23.4059C47.8367 23.9363 47.5328 24.6477 47.5134 25.3947C47.494 26.1417 47.7607 26.8678 48.2588 27.4248L43.4219 32.2431C42.8036 31.5863 42.0578 31.0627 41.23 30.7044C40.4023 30.346 39.5101 30.1605 38.6081 30.1591C37.7062 30.1577 36.8134 30.3404 35.9845 30.6962C35.1557 31.052 34.4082 31.5732 33.7879 32.228L28.9661 27.4248C29.4146 26.9234 29.677 26.2829 29.709 25.6108C29.7411 24.9388 29.541 24.2762 29.1422 23.7343L34.0514 18.844C34.6722 19.5013 35.421 20.0247 36.2516 20.3818C37.0822 20.739 37.9771 20.9223 38.8813 20.9206C39.7854 20.9189 40.6797 20.7322 41.509 20.372C42.3382 20.0117 43.085 19.4855 43.7033 18.8258L48.363 23.4059ZM49.0931 3.0283C49.0913 2.70265 49.1862 2.38381 49.3659 2.11219C49.5455 1.84057 49.8017 1.62839 50.1021 1.50254C50.4024 1.3767 50.7334 1.34286 51.053 1.40531C51.3726 1.46776 51.6665 1.62369 51.8974 1.85334C52.1282 2.08298 52.2858 2.37601 52.3499 2.69527C52.4141 3.01454 52.382 3.34566 52.2578 3.64669C52.1336 3.94772 51.9228 4.20508 51.6521 4.38618C51.3815 4.56727 51.0632 4.66393 50.7375 4.66392C50.3027 4.66461 49.8854 4.49279 49.5771 4.18616C49.2688 3.87952 49.0947 3.46312 49.0931 3.0283Z" fill="#576366"/>
</svg>
