<svg width="49" height="51" viewBox="0 0 49 51" fill="none" xmlns="http://www.w3.org/2000/svg">
<path d="M5.77377 9.826C5.77377 9.41621 5.4413 9.08374 5.03151 9.08374H0.742259C0.33247 9.08374 0 9.41621 0 9.826C0 10.2358 0.33247 10.5679 0.742259 10.5679H5.03151C5.4413 10.5679 5.77377 10.2358 5.77377 9.826Z" fill="#576366"/>
<path d="M1.61896 6.4959L4.65139 7.9348C4.75423 7.9839 4.86247 8.00671 4.96917 8.00671C5.24675 8.00671 5.51311 7.85014 5.63991 7.583C5.81581 7.21264 5.65808 6.77 5.28773 6.59448L2.25529 5.1552C1.88493 4.9793 1.44229 5.13741 1.26677 5.50738C1.09087 5.87774 1.2486 6.32 1.61896 6.4959Z" fill="#576366"/>
<path d="M4.77193 11.7199L1.7395 13.1588C1.36953 13.3347 1.21141 13.7773 1.38731 14.1473C1.51412 14.4148 1.78048 14.5714 2.05805 14.5714C2.16475 14.5714 2.273 14.5486 2.37583 14.4995L5.40827 13.0606C5.77862 12.8847 5.93635 12.4421 5.76045 12.0721C5.58494 11.7017 5.14229 11.544 4.77193 11.7199Z" fill="#576366"/>
<path d="M23.9313 39.287C24.3411 39.287 24.6732 38.9549 24.6732 38.5452V34.2292L25.3861 33.8009C25.9911 34.4743 26.7724 34.8292 27.6272 34.8288C27.9256 34.8288 28.2329 34.7859 28.5445 34.6982C30.5483 34.1349 32.204 31.9584 32.4812 29.5228C32.4828 29.5105 32.4839 29.4981 32.4847 29.4857C32.5183 28.9561 32.3861 28.5193 32.0919 28.1879C31.7803 27.8361 31.3129 27.6409 30.7017 27.6065C27.9886 27.4581 25.7526 28.4122 24.8673 30.0958C24.461 30.8682 24.3902 31.7199 24.6423 32.5162L23.9313 32.9438L23.2184 32.5159C23.4701 31.7199 23.4001 30.8694 22.9946 30.0973C22.1097 28.4126 19.8733 27.4584 17.1571 27.6065C16.547 27.6409 16.0796 27.8361 15.7676 28.1879C15.4734 28.5193 15.3416 28.9561 15.3752 29.4857C15.376 29.4981 15.3772 29.5105 15.3783 29.5228C15.6559 31.9584 17.3113 34.1349 19.315 34.6982C19.627 34.7859 19.9343 34.8288 20.2328 34.8288C21.0875 34.8288 21.8692 34.4739 22.4743 33.8001L23.1895 34.2292V38.5452C23.1891 38.9546 23.5215 39.287 23.9313 39.287ZM26.1805 30.7862C26.6603 29.8743 28.0791 28.9495 30.6198 29.0883C30.873 29.1022 30.9696 29.1583 30.982 29.1726C30.9886 29.1815 31.011 29.2406 31.0044 29.3748C30.7682 31.3758 29.3664 32.9256 28.1429 33.2697C27.585 33.4263 27.1018 33.3385 26.7001 33.0107L28.1259 32.1532C28.4773 31.9421 28.5909 31.4864 28.3799 31.1349C28.1688 30.7839 27.7126 30.6706 27.3616 30.8813L25.9841 31.7098C25.9575 31.4001 26.022 31.0878 26.1805 30.7862ZM21.8766 31.7098L20.498 30.8813C20.1466 30.6703 19.6908 30.7839 19.4797 31.1353C19.2686 31.4867 19.3827 31.9425 19.7337 32.1532L21.1598 33.0103C20.7578 33.3381 20.2745 33.4263 19.7167 33.2693C18.4931 32.9253 17.0913 31.3758 16.8551 29.3748C16.8486 29.2406 16.871 29.1811 16.8775 29.1726C16.8899 29.1583 16.987 29.1022 17.2386 29.0879C19.7828 28.9491 21.2012 29.8746 21.6806 30.7874C21.8387 31.0886 21.9029 31.4005 21.8766 31.7098Z" fill="#576366"/>
<path d="M47.6753 18.6608L42.6395 9.80705C42.6353 9.79932 42.6307 9.79159 42.626 9.78386C40.99 7.13455 39.6408 6.91535 38.2888 6.91535H27.2401V5.35584H28.142C29.2117 5.35584 30.0819 4.48562 30.0819 3.41554V1.93992C30.0819 0.870218 29.2117 0 28.142 0H19.8774C18.8062 0 17.9348 0.870218 17.9348 1.93992V3.41554C17.9348 4.48562 18.8062 5.35584 19.8774 5.35584H20.7793V6.91535H12.5534C12.5171 6.09577 11.8394 5.43973 11.0098 5.43973H8.77954C7.92788 5.43973 7.23511 6.1325 7.23511 6.98416V12.4212C7.23511 13.2725 7.92788 13.9656 8.77954 13.9656H11.0098C11.8394 13.9656 12.5171 13.3092 12.5534 12.4896H17.8803L16.2234 15.8058H13.5319C12.4622 15.8058 11.5916 16.676 11.5916 17.7457V48.7314C11.5916 49.8011 12.4622 50.6717 13.5319 50.6717H34.4511C35.5208 50.6717 36.3911 49.8011 36.3911 48.7314V33.2821C36.3911 32.8723 36.059 32.5398 35.6488 32.5398C35.239 32.5398 34.9069 32.8723 34.9069 33.2821V43.9241H13.0757V21.9186H22.074C22.4838 21.9186 22.8159 21.5865 22.8159 21.1767C22.8159 20.7669 22.4838 20.4345 22.074 20.4345H13.0757V17.7457C13.0757 17.494 13.2802 17.2899 13.5315 17.2899H34.4511C34.7024 17.2899 34.9066 17.494 34.9066 17.7457V20.4345H26.1584C25.7486 20.4345 25.4161 20.7669 25.4161 21.1767C25.4161 21.5865 25.7486 21.9186 26.1584 21.9186H34.9066V29.8565C34.9066 30.2662 35.239 30.5987 35.6488 30.5987C36.0586 30.5987 36.3907 30.2662 36.3907 29.8565V17.7457C36.3907 16.676 35.5205 15.8058 34.4508 15.8058H32.2843L30.6293 12.4896H35.6488C37.8292 12.4896 38.0059 12.8159 38.9859 14.6271C39.1432 14.9178 39.3214 15.2468 39.5263 15.6075L42.8301 21.4137C43.197 22.0597 43.7947 22.5248 44.5145 22.7231C44.7615 22.7911 45.0124 22.8247 45.2614 22.8244C45.7365 22.8244 46.2051 22.7018 46.6276 22.4617C47.2736 22.0953 47.7383 21.4968 47.9366 20.777C48.1349 20.0571 48.0422 19.3056 47.6753 18.6608ZM11.0728 12.4212C11.0728 12.4525 11.0426 12.4811 11.0098 12.4811H8.77954C8.74745 12.4811 8.71923 12.4533 8.71923 12.4212V6.98416C8.71923 6.95208 8.74745 6.92385 8.77954 6.92385H11.0098C11.0426 6.92385 11.0728 6.95246 11.0728 6.98416V12.4212ZM34.9069 45.4083V48.7314C34.9069 48.9827 34.7024 49.1872 34.4511 49.1872H13.5319C13.2802 49.1872 13.0761 48.9827 13.0761 48.7314V45.4083H34.9069ZM19.8774 3.87133C19.6288 3.87133 19.4189 3.66295 19.4189 3.41554V1.93992C19.4189 1.69288 19.6288 1.48412 19.8774 1.48412H28.142C28.3933 1.48412 28.5978 1.68863 28.5978 1.93992V3.41554C28.5978 3.66721 28.3933 3.87133 28.142 3.87133H19.8774ZM25.7559 5.35545V6.91535H22.2635V5.35545H25.7559ZM17.8822 15.8058L19.5392 12.4896H28.9704L30.6254 15.8058H17.8822ZM46.5058 20.383C46.4127 20.7205 46.1962 21.0004 45.8946 21.1713C45.595 21.3418 45.2444 21.3847 44.9085 21.2923C44.5717 21.1995 44.2918 20.9826 44.1206 20.6807L40.8164 14.8737C40.6192 14.5269 40.4449 14.2049 40.291 13.9208C39.1687 11.8471 38.5958 11.0055 35.6488 11.0055H12.5569V8.39947H38.2888C39.1417 8.39947 40.0235 8.39909 41.3564 10.5524L46.3852 19.3945C46.5557 19.6945 46.5986 20.0455 46.5058 20.383Z" fill="#576366"/>
</svg>
