<svg width="44" height="55" viewBox="0 0 44 55" fill="none" xmlns="http://www.w3.org/2000/svg">
<path d="M43.7908 35.4275C43.5992 35.2175 43.3104 35.1247 43.0321 35.1842C35.596 36.7729 30.9318 40.1682 28.3286 42.7366C25.8201 45.2115 24.6937 47.392 24.4304 47.9473C24.1876 48.2104 23.4986 48.9655 22.8007 49.8108V40.451C23.2906 39.8334 24.5512 38.1084 25.1028 36.0811C26.6646 38.1005 29.024 39.3074 29.1726 39.382C29.2855 39.4387 29.4086 39.4672 29.5321 39.4672C29.6361 39.4672 29.7403 39.447 29.8385 39.4063C30.0534 39.3172 30.2189 39.1392 30.2922 38.9183C30.3445 38.7604 31.1594 36.2386 30.8359 33.7063C33.0515 34.9742 35.6933 35.1863 35.8592 35.1985C35.8787 35.2 35.8982 35.2006 35.9175 35.2006C36.129 35.2006 36.333 35.1168 36.4836 34.9661C36.6481 34.8016 36.7329 34.5737 36.716 34.3417C36.7039 34.1758 36.4917 31.534 35.2238 29.3183C35.6408 29.3716 36.0576 29.3946 36.4635 29.3946C38.5224 29.3946 40.304 28.8184 40.4358 28.7748C40.6566 28.7016 40.8347 28.5361 40.9238 28.3211C41.0128 28.1061 41.0039 27.8631 40.8994 27.6552C40.8247 27.5065 39.6177 25.1469 37.597 23.5852C40.0608 22.9153 42.0798 21.1972 42.2058 21.0886C42.3818 20.9364 42.483 20.7154 42.483 20.4827C42.483 20.2501 42.3818 20.029 42.2058 19.8769C42.0799 19.7681 40.0619 18.0501 37.5985 17.38C39.6178 15.8182 40.8248 13.4588 40.8995 13.3101C41.0041 13.1023 41.0129 12.8592 40.9239 12.6443C40.8349 12.4294 40.6568 12.2639 40.4359 12.1906C40.278 12.1383 37.7562 11.3234 35.2239 11.6468C36.4918 9.43117 36.7041 6.78937 36.7161 6.62358C36.7331 6.3916 36.6482 6.16369 36.4837 5.99918C36.3192 5.83468 36.0914 5.74949 35.8593 5.76678C35.6934 5.77884 33.0516 5.99107 30.836 7.25897C31.1595 4.72669 30.3446 2.20487 30.2923 2.04698C30.2191 1.82622 30.0536 1.64805 29.8386 1.55902C29.6238 1.46998 29.3806 1.47885 29.1728 1.58336C29.0242 1.65798 26.6646 2.86503 25.1029 4.88426C24.4328 2.42104 22.7148 0.402991 22.6061 0.27713C22.4537 0.101202 22.2327 0 21.9999 0C21.7673 0 21.5462 0.101202 21.3941 0.277237C21.2853 0.403098 19.5674 2.42115 18.8973 4.88436C17.3355 2.86503 14.976 1.65808 14.8274 1.58346C14.6196 1.47895 14.3765 1.47009 14.1616 1.55912C13.9467 1.64815 13.7812 1.82622 13.7079 2.04709C13.6556 2.20498 12.8407 4.7269 13.1642 7.25908C10.9486 5.99118 8.30677 5.77895 8.14087 5.76689C7.90879 5.74938 7.68098 5.83478 7.51648 5.99929C7.35197 6.16379 7.26721 6.39171 7.28408 6.62369C7.29614 6.78958 7.50836 9.43139 8.77627 11.647C6.24409 11.3235 3.72217 12.1384 3.56428 12.1907C3.34351 12.2639 3.16534 12.4294 3.07631 12.6444C2.98728 12.8594 2.99614 13.1024 3.10065 13.3102C3.17527 13.4588 4.38222 15.8184 6.40144 17.3801C3.93823 18.0503 1.92029 19.7683 1.79443 19.8769C1.61839 20.029 1.51719 20.2501 1.51719 20.4827C1.51719 20.7154 1.61839 20.9364 1.79443 21.0886C1.92029 21.1974 3.93951 22.9156 6.40369 23.5854C4.38403 25.1472 3.17538 27.5066 3.10076 27.6554C2.99625 27.8632 2.98739 28.1063 3.07642 28.3212C3.16545 28.5361 3.34351 28.7016 3.56439 28.7749C3.69622 28.8185 5.47761 29.3948 7.53665 29.3947C7.94263 29.3947 8.35929 29.3717 8.77637 29.3185C7.50836 31.5341 7.29625 34.176 7.28408 34.3419C7.2671 34.5739 7.35197 34.8018 7.51648 34.9663C7.66721 35.1171 7.871 35.2009 8.08259 35.2009C8.10202 35.2009 8.12144 35.2002 8.14087 35.1987C8.30677 35.1867 10.9486 34.9745 13.1642 33.7065C12.8407 36.2388 13.6556 38.7606 13.7079 38.9185C13.781 39.1393 13.9466 39.3175 14.1616 39.4065C14.2598 39.4472 14.364 39.4674 14.468 39.4674C14.5914 39.4674 14.7146 39.4389 14.8274 39.3822C14.976 39.3076 17.3356 38.1007 18.8973 36.0813C19.4488 38.1086 20.7094 39.8337 21.1994 40.4512V49.8108C20.5014 48.9657 19.8125 48.2104 19.5697 47.9473C19.3064 47.392 18.18 45.2115 15.6715 42.7366C13.0682 40.1682 8.40402 36.7729 0.967946 35.1842C0.689962 35.1248 0.400982 35.2175 0.209254 35.4275C0.0175263 35.6376 -0.0483399 35.9336 0.0362082 36.2052C0.0710096 36.3168 0.919054 38.9732 3.67349 41.9067C6.1573 44.5521 10.7391 47.9371 18.4955 49.1453C19.0177 49.7168 20.5151 51.3863 21.1994 52.4759V53.8567C21.1994 54.2989 21.5579 54.6574 22 54.6574C22.4422 54.6574 22.8007 54.2989 22.8007 53.8567V52.4758C23.4845 51.3871 24.9823 49.7169 25.5046 49.1452C33.2609 47.9371 37.8428 44.552 40.3265 41.9066C43.0809 38.9731 43.9291 36.3167 43.9638 36.2051C44.0483 35.9336 43.9826 35.6376 43.7908 35.4275ZM4.90253 40.876C3.54933 39.4488 2.69158 38.0844 2.18482 37.1191C8.30389 38.7258 12.2248 41.6024 14.4863 43.8172C15.8578 45.1603 16.7904 46.4176 17.3728 47.322C10.9382 46.0341 7.06299 43.1548 4.90253 40.876ZM29.0237 37.4416C28.6007 37.1689 28.0696 36.7931 27.5403 36.3292C26.607 35.5114 25.5143 34.2644 25.3559 32.8158C26.4132 32.5278 27.4166 32.108 28.3465 31.5737C29.6877 33.2317 29.3392 35.9845 29.0237 37.4416ZM33.1828 33.0028C32.0059 32.6039 30.5166 31.8682 29.8171 30.5872C30.6725 29.924 31.4417 29.1548 32.1048 28.2994C33.9806 29.3165 34.7126 31.9952 34.979 33.4628C34.4838 33.3728 33.8493 33.2288 33.1828 33.0028ZM38.9582 27.5079C38.4663 27.6144 37.8251 27.724 37.1227 27.7703C35.8833 27.852 34.2289 27.7408 33.0925 26.8266C33.6262 25.8971 34.0456 24.8943 34.3333 23.8378C36.4516 24.0632 38.1513 26.2553 38.9582 27.5079ZM40.3556 20.4835C39.9419 20.7701 39.3916 21.1169 38.7603 21.4284C37.6478 21.9776 36.0775 22.5098 34.6787 22.1021C34.7461 21.5716 34.7809 21.0311 34.7809 20.4827C34.7809 19.934 34.7461 19.3933 34.6786 18.8627C36.7229 18.2606 39.131 19.6351 40.3556 20.4835ZM38.9587 13.459C38.686 13.882 38.3103 14.4131 37.8464 14.9424C37.0287 15.8757 35.7805 16.9643 34.3328 17.1258C34.0447 16.069 33.625 15.0659 33.091 14.1363C34.7489 12.795 37.5019 13.1437 38.9587 13.459ZM34.9794 7.50397C34.8877 8.00869 34.7404 8.65668 34.5094 9.33157C34.1106 10.4966 33.3771 11.9707 32.1045 12.6657C31.4413 11.8103 30.6721 11.0411 29.8167 10.378C30.8337 8.50264 33.5116 7.77053 34.9794 7.50397ZM29.0241 3.52519C29.3394 4.9829 29.6873 7.73434 28.3465 9.39157C27.4164 8.85727 26.4127 8.43731 25.3552 8.14939C25.5808 6.03078 27.7712 4.33245 29.0241 3.52519ZM21.9999 2.12812C22.8486 3.35353 24.222 5.76048 23.62 7.80394C23.0893 7.73647 22.5486 7.70167 21.9999 7.70167C21.4512 7.70167 20.9105 7.73647 20.3799 7.80394C19.7779 5.76027 21.1515 3.3531 21.9999 2.12812ZM14.9759 3.52519C16.2291 4.33267 18.4192 6.03089 18.6448 8.14939C17.5873 8.43741 16.5836 8.85727 15.6535 9.39157C14.3127 7.73423 14.6607 4.98258 14.9759 3.52519ZM10.8488 7.97336C12.0138 8.37219 13.4879 9.10569 14.1829 10.3782C13.3275 11.0414 12.5583 11.8106 11.8952 12.666C10.0198 11.649 9.28772 8.97107 9.02116 7.50333C9.52599 7.59514 10.174 7.74235 10.8488 7.97336ZM5.04184 13.4576C5.53376 13.3511 6.17502 13.2415 6.87735 13.1952C8.11643 13.1132 9.77109 13.2246 10.9076 14.1389C10.374 15.0681 9.9546 16.0709 9.6669 17.1272C7.54519 16.8998 5.84868 14.7103 5.04184 13.4576ZM3.6452 20.4827C4.87061 19.634 7.27735 18.2607 9.32113 18.8627C9.25366 19.3933 9.21886 19.934 9.21886 20.4827C9.21886 21.0315 9.25366 21.5722 9.32113 22.1028C7.27735 22.705 4.87029 21.3313 3.6452 20.4827ZM5.0411 27.5065C5.31374 27.0835 5.68962 26.5524 6.15346 26.0231C6.97118 25.0897 8.21816 23.9989 9.66701 23.8392C9.95503 24.8962 10.3748 25.8995 10.909 26.8293C9.2511 28.1705 6.49827 27.8219 5.0411 27.5065ZM9.01998 33.4617C9.10997 32.9665 9.25398 32.3321 9.47998 31.6655C9.87891 30.4886 10.6145 28.9994 11.8956 28.2999C12.5588 29.1553 13.328 29.9244 14.1834 30.5876C13.1662 32.4634 10.4876 33.1954 9.01998 33.4617ZM14.9759 37.4403C14.6606 35.9825 14.3127 33.2312 15.6535 31.5738C16.5836 32.1081 17.5873 32.5281 18.6448 32.816C18.4192 34.9347 16.2289 36.633 14.9759 37.4403ZM10.8202 20.4827C10.8202 14.3182 15.8353 9.30296 21.9999 9.30296C28.1646 9.30296 33.1797 14.3182 33.1797 20.4827C33.1797 26.6473 28.1645 31.6625 21.9999 31.6625C15.8355 31.6625 10.8202 26.6473 10.8202 20.4827ZM21.9992 38.8386C21.7126 38.4248 21.3658 37.8743 21.0542 37.2432C20.505 36.1306 19.9728 34.5604 20.3805 33.1617C20.911 33.229 21.4514 33.2638 21.9999 33.2638C22.5486 33.2638 23.0893 33.229 23.62 33.1616C24.2223 35.2058 22.8478 37.6138 21.9992 38.8386ZM39.0975 40.876C36.9372 43.1547 33.0631 46.0336 26.6292 47.3214C28.2594 44.8007 32.639 39.5241 41.8154 37.1187C41.3086 38.0839 40.451 39.4484 39.0975 40.876Z" fill="#576366"/>
</svg>
