<svg width="51" height="51" viewBox="0 0 51 51" fill="none" xmlns="http://www.w3.org/2000/svg">
<path d="M0.584925 34.801L1.49504 35.1041C5.85741 36.5553 9.92768 38.7693 13.5163 41.643L20.719 47.4055C20.7678 47.4392 20.8203 47.468 20.8754 47.4904L20.8704 47.5014L23.7999 48.9673V50.9918H25.4995V38.6687L28.559 36.3739L28.55 36.3622C28.5848 36.3421 28.6182 36.3197 28.6503 36.295C34.0321 30.9306 41.0412 27.5027 48.5798 26.5475L50.2513 26.3386C50.7172 26.2801 51.0474 25.8553 50.9889 25.3894C50.9488 25.0695 50.7309 24.7998 50.4264 24.6932L43.3564 22.2192C37.5973 20.2034 31.2944 23.2383 29.2786 28.9977C29.2412 29.1043 29.2054 29.212 29.1713 29.3199L27.321 35.1783L25.4998 36.544V24.3098C25.4978 22.6794 26.3133 21.1563 27.6713 20.2536L27.662 20.2399C27.7111 20.2138 27.7575 20.1827 27.8003 20.1473C31.2142 16.7325 32.9976 12.0161 32.6975 7.19686L32.2987 0.796348C32.2737 0.3936 31.9692 0.0643826 31.5698 0.0075634C31.171 -0.0455793 30.789 0.185708 30.651 0.563389L27.9023 8.25671C26.8742 11.1301 26.3488 14.1596 26.3498 17.2118V19.1266C24.7428 20.3666 23.8013 22.281 23.7999 24.3108V25.9943L22.9356 25.13C22.7909 18.8104 18.6925 13.2625 12.6948 11.2661L7.07134 9.39643C6.62581 9.24737 6.14452 9.48768 5.99579 9.93288C5.94665 10.0793 5.93863 10.2364 5.97239 10.3871L6.90723 14.6044C8.40459 21.4849 14.511 26.38 21.5522 26.3453H21.7484L23.8003 28.3968V47.0669L22.1004 46.2169V44.4689C22.1 37.1232 16.145 31.1686 8.79931 31.1689C7.36981 31.1689 5.94933 31.3995 4.59302 31.8517L0.584925 33.1876C0.138727 33.3344 -0.103924 33.8147 0.042803 34.2605C0.127029 34.5169 0.328236 34.7181 0.584925 34.8026V34.801ZM30.792 29.83C32.0223 25.9455 35.6223 23.3018 39.6969 23.2901C40.7524 23.2917 41.7999 23.4712 42.7956 23.8212L46.5493 25.1354C40.3891 26.2407 34.6216 28.9275 29.8121 32.933L30.792 29.83ZM28.0493 17.2118C28.0483 14.3547 28.5393 11.5188 29.5009 8.82858L30.8609 5.02804L31.0026 7.30315C31.2239 10.8677 30.1777 14.3959 28.0493 17.2636V17.2118ZM8.56936 14.2311L7.95739 11.4784L12.1567 12.8781C16.8088 14.4266 20.2283 18.4133 21.0505 23.2466L14.2025 16.3986L13.0006 17.6001L19.9503 24.5498C14.3405 23.897 9.76658 19.7502 8.56936 14.2311ZM5.13247 33.464C11.2098 31.4376 17.7788 34.7214 19.8049 40.7984C20.1996 41.9819 20.4008 43.2216 20.4005 44.4689V44.9739L14.5788 40.3174C11.2402 37.6429 7.49882 35.5142 3.49407 34.0105L5.13247 33.464Z" fill="#576366"/>
<line x1="3.4935" y1="0.971721" x2="44.2957" y2="50.5172" stroke="#576366" stroke-width="1.5"/>
</svg>
