<svg width="41" height="49" viewBox="0 0 41 49" fill="none" xmlns="http://www.w3.org/2000/svg">
<path d="M18.448 7.2207H20.0518V8.82453H18.448V7.2207Z" fill="#576366"/>
<path d="M20.0518 4.01318H21.6556V5.61701H20.0518V4.01318Z" fill="#576366"/>
<path d="M20.8535 9.62646H22.4573V11.2303H20.8535V9.62646Z" fill="#576366"/>
<path d="M17.646 11.2305H19.2498V12.8343H17.646V11.2305Z" fill="#576366"/>
<path d="M20.0518 13.6362H21.6556V15.2401H20.0518V13.6362Z" fill="#576366"/>
<path d="M17.646 16.042H19.2498V17.6458H17.646V16.042Z" fill="#576366"/>
<path d="M19.2498 17.6455H20.8536V19.2493H19.2498V17.6455Z" fill="#576366"/>
<path d="M39.9392 37.2188C39.7492 36.9453 37.9753 34.5316 32.475 31.384C31.8285 30.9964 31.1073 30.7499 30.3587 30.6607C29.6102 30.5716 28.8513 30.6418 28.1318 30.8668C25.7213 31.5965 23.7285 33.8459 22.4543 35.6542V33.0424C23.9434 31.6431 25.6539 28.9759 25.6403 24.0714L25.6539 23.0369L37.1421 19.2069C37.2717 19.1637 37.3881 19.088 37.4802 18.9872C37.5723 18.8863 37.6372 18.7636 37.6686 18.6307C37.7 18.4978 37.6969 18.359 37.6597 18.2276C37.6224 18.0962 37.5522 17.9765 37.4557 17.8798L36.6538 17.0779C35.1915 15.7209 33.2703 14.9668 31.2753 14.9668C29.2804 14.9668 27.3592 15.7209 25.8969 17.0779L25.6651 17.3136V10.4284C25.6876 1.92807 20.524 0.114943 20.3043 0.0419683C20.1405 -0.0133384 19.963 -0.0133384 19.7991 0.0419683C19.5794 0.117348 14.4159 1.92807 14.4383 10.4284V17.3136L14.2033 17.0787C12.741 15.7217 10.8198 14.9676 8.8249 14.9676C6.82996 14.9676 4.90875 15.7217 3.44645 17.0787L2.64454 17.8806C2.54803 17.9773 2.47782 18.097 2.44057 18.2284C2.40331 18.3598 2.40024 18.4986 2.43164 18.6315C2.46305 18.7644 2.52789 18.8871 2.62003 18.988C2.71216 19.0888 2.82852 19.1645 2.95808 19.2078L14.4463 23.0377L14.46 24.0609C14.4463 28.9711 16.1568 31.6415 17.646 33.0424V35.655C16.3717 33.8467 14.379 31.5973 11.9684 30.8676C11.2489 30.6428 10.49 30.5727 9.74152 30.6618C8.99301 30.751 8.27181 30.9974 7.62523 31.3848C1.91319 34.6486 0.208316 37.1442 0.13855 37.2492C0.038662 37.3963 -0.00952564 37.5724 0.00156165 37.7498C0.0126489 37.9273 0.0823822 38.096 0.199801 38.2295C0.317219 38.3629 0.475665 38.4536 0.650234 38.4873C0.824803 38.5209 1.0056 38.4955 1.1642 38.4152C3.27163 37.3615 9.2443 35.0047 11.5514 36.7312C13.3327 38.0781 15.4323 38.9409 17.646 39.2356V41.0078C14.7887 38.825 12.4071 39.3086 10.8297 40.2059C5.49775 43.2572 3.66778 45.6196 3.38871 46.0102C3.27391 46.1508 3.21105 46.3266 3.21069 46.5082C3.21014 46.6471 3.2457 46.7838 3.31388 46.9048C3.38205 47.0259 3.48051 47.1272 3.5996 47.1987C3.7187 47.2703 3.85433 47.3097 3.99323 47.313C4.13212 47.3164 4.2695 47.2836 4.39191 47.2179C7.04465 45.926 12.5939 43.9276 14.7591 45.5523C15.6488 46.2154 16.6188 46.7635 17.646 47.1834V47.3165C17.646 47.5292 17.7305 47.7332 17.8808 47.8835C18.0312 48.0339 18.2352 48.1184 18.4479 48.1184H21.6555C21.8682 48.1184 22.0722 48.0339 22.2226 47.8835C22.373 47.7332 22.4575 47.5292 22.4575 47.3165V43.9757C23.4845 43.5555 24.4545 43.0075 25.3444 42.3446C27.4991 40.728 33.0027 42.6991 35.6714 43.9918C35.7929 44.0647 35.9316 44.1042 36.0733 44.1062C36.215 44.1082 36.3547 44.0725 36.4782 44.0029C36.6017 43.9333 36.7045 43.8323 36.7762 43.71C36.8479 43.5877 36.8859 43.4487 36.8863 43.3069C36.8866 43.137 36.8336 42.9712 36.7348 42.833C36.5439 42.5587 34.7701 40.1458 29.2681 36.9966C29.0628 36.8808 28.8513 36.7761 28.6346 36.6831C30.8399 35.1683 36.2416 37.1009 38.8791 38.3791C39.0006 38.4522 39.1394 38.4917 39.2812 38.4936C39.423 38.4955 39.5627 38.4598 39.6862 38.3901C39.8097 38.3204 39.9125 38.2192 39.9841 38.0969C40.0558 37.9745 40.0937 37.8353 40.094 37.6935C40.0934 37.523 40.0392 37.3569 39.9392 37.2188ZM12.5137 35.4481C11.5287 34.7845 10.3552 34.4578 9.16892 34.5171C7.56141 34.5662 5.97001 34.8529 4.44644 35.368C5.71532 34.4196 7.0439 33.5539 8.42394 32.7762C8.88069 32.4971 9.39197 32.3192 9.92331 32.2544C10.4547 32.1897 10.9937 32.2396 11.5041 32.4009C13.8754 33.1178 15.889 35.8162 16.9443 37.489C15.3388 37.1325 13.8281 36.4366 12.5137 35.4481ZM19.7983 24.8212C19.9627 24.8768 20.1408 24.8768 20.3051 24.8212L20.8167 24.6512C20.7203 26.5628 20.4747 28.4641 20.0822 30.3375C19.6885 28.4637 19.4259 26.5647 19.2963 24.6544L19.7983 24.8212ZM24.0396 24.0609C24.0517 28.4065 22.5962 30.7 21.3885 31.8556C22.0048 29.3156 22.3582 26.719 22.443 24.1067L24.0469 23.5718L24.0396 24.0609ZM27.034 18.207C28.1771 17.1741 29.6571 16.5928 31.1976 16.5717C32.738 16.5506 34.2334 17.0911 35.4044 18.0923L23.0188 22.2262L27.034 18.207ZM16.0421 10.4284C16.0253 4.10527 19.1247 2.12775 20.0517 1.67788C20.9851 2.12855 24.0781 4.11009 24.0613 10.4284V18.9175L20.0517 22.927L16.0421 18.9175V10.4284ZM13.0694 18.215L17.079 22.2246L4.69904 18.0979C5.86954 17.0958 7.36515 16.5546 8.90588 16.5757C10.4466 16.5969 11.9268 17.1788 13.0694 18.2126V18.215ZM16.0638 24.0521L16.0574 23.5766L17.6612 24.1115C17.7964 26.7414 18.1706 29.3536 18.7791 31.9157C17.557 30.777 16.0518 28.4811 16.0638 24.0497V24.0521ZM15.7214 44.2692C13.7262 42.7728 10.3485 43.3446 7.63806 44.2019C8.91204 43.2492 10.246 42.3795 11.6316 41.598C13.4985 40.5339 15.5233 41.064 17.646 43.1401V45.4296C16.9684 45.106 16.3238 44.7174 15.7214 44.2692ZM19.2498 46.5146V34.2012C19.4202 34.292 19.5968 34.3708 19.7783 34.4369L19.7983 34.4441C19.8759 34.4643 19.955 34.4782 20.0349 34.4858H20.0517C20.1372 34.4795 20.222 34.4655 20.3051 34.4441C20.4936 34.3776 20.677 34.2971 20.8536 34.2036V46.5146H19.2498ZM32.4646 40.9934C29.7549 40.1385 26.3772 39.566 24.3829 41.0608C23.7802 41.5093 23.1354 41.8982 22.4575 42.2219V39.9301C22.8082 39.5828 23.1834 39.2612 23.5801 38.9678C24.442 38.2917 25.4912 37.8978 26.5849 37.8395C27.2511 37.8596 27.9011 38.0495 28.4734 38.3912C29.8579 39.1726 31.191 40.0418 32.4646 40.9934ZM27.5897 35.4481C27.1977 35.7401 26.7871 36.0061 26.3604 36.2444C25.2885 36.3059 24.2495 36.6369 23.3396 37.2067C24.435 35.5283 26.3524 33.0825 28.6001 32.4009C29.1107 32.2391 29.65 32.1888 30.1817 32.2534C30.7133 32.318 31.2249 32.496 31.6819 32.7754C33.0662 33.5572 34.3991 34.427 35.6722 35.3792C32.9626 34.5235 29.5857 33.9494 27.5897 35.4481Z" fill="#576366"/>
</svg>
