<svg width="56" height="53" viewBox="0 0 56 53" fill="none" xmlns="http://www.w3.org/2000/svg">
<path d="M9.27828 31.606C8.97706 31.2593 8.45184 31.2221 8.10491 31.5234C3.09937 35.87 0.288002 39.5269 0.170643 39.6805C-0.108044 40.0456 -0.0380439 40.5675 0.327049 40.8463C0.477767 40.9614 0.655064 41.0169 0.831157 41.0169C1.08152 41.0169 1.32914 40.9043 1.49287 40.6899C1.52055 40.6536 4.31726 37.0155 9.19559 32.7793C9.54231 32.4781 9.57928 31.9527 9.27828 31.606Z" fill="#576366"/>
<path d="M55.2408 39.3566C50.2094 38.9136 45.7447 37.6327 41.9706 35.5495C38.9621 33.889 36.3794 31.7153 34.2938 29.0888C30.7276 24.5975 29.8356 20.2741 29.8272 20.2321C29.7817 20.0005 29.64 19.799 29.4371 19.6781C29.2345 19.5571 28.9898 19.528 28.7644 19.5981C23.303 21.2948 17.8962 24.0766 12.6946 27.8662C12.3234 28.1367 12.2416 28.6568 12.512 29.0281C12.7825 29.3993 13.3027 29.4812 13.6739 29.2106C17.7363 26.2511 21.9212 23.9289 26.1525 22.2776C25.1618 23.4276 23.9385 24.9346 22.669 26.7105C17.7163 33.6384 16.0898 39.0538 15.5974 42.3767C15.5301 42.831 15.8438 43.254 16.2981 43.3213C16.3394 43.3274 16.3804 43.3303 16.421 43.3303C16.8264 43.3303 17.1815 43.0335 17.2427 42.6204C18.0849 36.9376 21.3846 31.3713 24.0045 27.7025C25.8118 25.1716 27.553 23.171 28.5993 22.032C29.1625 23.7803 30.4116 26.8528 32.9376 30.0553C35.158 32.8706 37.9097 35.1997 41.1162 36.978C45.1055 39.1903 49.8086 40.5483 55.0948 41.0138C55.1196 41.016 55.1442 41.017 55.1687 41.017C55.5951 41.017 55.9582 40.6909 55.9963 40.2581C56.0365 39.8005 55.6983 39.3969 55.2408 39.3566Z" fill="#576366"/>
<path d="M55.5339 20.4773C55.1213 20.2751 54.6232 20.4456 54.421 20.8581C50.6657 28.5207 46.3079 32.0441 43.3132 33.6506C42.9084 33.8677 42.7563 34.3718 42.9736 34.7767C43.1237 35.0564 43.4107 35.2154 43.7072 35.2154C43.8399 35.2154 43.9745 35.1836 44.0996 35.1165C47.3094 33.3946 51.9647 29.6502 55.9148 21.5901C56.1167 21.1776 55.9462 20.6794 55.5339 20.4773Z" fill="#576366"/>
<path d="M55.9865 47.5837C55.9043 47.1319 55.4714 46.8321 55.0194 46.9142C52.9936 47.2827 50.7354 47.4619 48.1156 47.4619C42.3273 47.4619 39.5131 46.617 36.5338 45.7228C35.7806 45.4966 35.0015 45.2629 34.1782 45.0463C33.7337 44.9295 33.2792 45.195 33.1623 45.6391C33.0454 46.0834 33.311 46.5381 33.7552 46.655C34.5508 46.8642 35.3158 47.0939 36.0556 47.3161C39.0189 48.2056 42.0831 49.1254 48.1156 49.1254C50.8364 49.1254 53.1919 48.9375 55.3171 48.5509C55.7689 48.4686 56.0686 48.0356 55.9865 47.5837Z" fill="#576366"/>
<path d="M31.861 44.5219C29.6488 44.1068 27.3013 43.9135 24.4736 43.9135C18.441 43.9135 15.3769 44.8334 12.4137 45.7229C9.43436 46.6173 6.62026 47.462 0.83193 47.462C0.372665 47.462 0.000244141 47.8343 0.000244141 48.2937C0.000244141 48.7529 0.372556 49.1253 0.83193 49.1253C6.86449 49.1253 9.92863 48.2055 12.8918 47.316C15.8712 46.4216 18.6853 45.5769 24.4735 45.5769C27.1956 45.5769 29.4456 45.7611 31.5541 46.1567C32.006 46.2413 32.4402 45.944 32.5248 45.4926C32.6098 45.0412 32.3124 44.6066 31.861 44.5219Z" fill="#576366"/>
<path d="M13.5844 16.1053C13.1251 16.1053 12.7527 16.4776 12.7527 16.937V18.647C12.7527 19.2022 12.3011 19.6539 11.7458 19.6539H11.6148V15.2737C11.6148 14.8145 11.2425 14.4421 10.7831 14.4421C10.3238 14.4421 9.95141 14.8145 9.95141 15.2737V25.5292C9.41384 25.5089 8.98246 25.0666 8.98246 24.5241V22.0379C8.98246 21.5787 8.61004 21.2062 8.15078 21.2062C7.69151 21.2062 7.31909 21.5785 7.31909 22.0379V24.5241C7.31909 25.9837 8.49651 27.1728 9.95141 27.1933V33.7923C9.95141 34.2516 10.3238 34.624 10.7831 34.624C11.2424 34.624 11.6148 34.2517 11.6148 33.7923V21.3171H11.7458C13.2182 21.3171 14.4161 20.1193 14.4161 18.6469V16.9369C14.4161 16.4777 14.0437 16.1053 13.5844 16.1053Z" fill="#576366"/>
<path d="M49.783 6.69034C49.648 6.25131 49.1829 6.00467 48.7436 6.13986C48.3046 6.27494 48.0581 6.74022 48.1931 7.17925C48.4214 7.92179 48.5372 8.69628 48.5372 9.48093C48.5372 13.7916 45.0302 17.2987 40.7195 17.2987C36.4087 17.2987 32.9017 13.7917 32.9017 9.48093C32.9017 5.17025 36.4087 1.66315 40.7195 1.66315C43.3397 1.66315 45.7733 2.96679 47.2292 5.15035C47.4841 5.53261 48.0004 5.63575 48.3826 5.38102C48.7647 5.12617 48.868 4.60993 48.6132 4.22766C46.8483 1.58036 43.8973 0 40.7196 0C35.4917 0 31.2385 4.25315 31.2385 9.48104C31.2385 14.7089 35.4916 18.9621 40.7195 18.9621C45.9473 18.9621 50.2005 14.7089 50.2005 9.48104C50.2006 8.53046 50.0602 7.59148 49.783 6.69034Z" fill="#576366"/>
<path d="M21.9347 39.6704C21.5641 39.8133 21.3373 40.2167 21.419 40.6082C21.4813 40.9411 21.7589 41.2079 22.0914 41.2647C22.4456 41.3252 22.809 41.1462 22.973 40.8259C23.3133 40.161 22.6349 39.4005 21.9347 39.6704Z" fill="#576366"/>
<path d="M23.8994 38.5487C23.5915 38.8202 23.5349 39.2912 23.7598 39.6324C24.1742 40.2384 25.1431 40.0397 25.2704 39.3126C25.4034 38.5525 24.4763 38.04 23.8994 38.5487Z" fill="#576366"/>
<path d="M51.6374 49.6236C51.3259 49.4181 50.9034 49.4428 50.6236 49.6931C50.3678 49.922 50.2772 50.293 50.4005 50.6137C50.5269 50.9425 50.8581 51.1602 51.2105 51.1453C51.5381 51.1314 51.8331 50.9192 51.9507 50.6137C52.0888 50.2557 51.9592 49.8355 51.6374 49.6236Z" fill="#576366"/>
<path d="M50.3624 51.4533C50.0757 51.2643 49.6964 51.2696 49.416 51.4688C49.115 51.6826 48.9943 52.0855 49.1207 52.4306C49.2333 52.7379 49.5224 52.9533 49.8492 52.974C50.2187 52.9973 50.5668 52.7642 50.6872 52.4146C50.8082 52.0632 50.6735 51.6581 50.3624 51.4533Z" fill="#576366"/>
<path d="M4.81544 43.4537C4.54878 42.7878 3.57381 42.7873 3.28791 43.4352C3.1408 43.7686 3.23213 44.1721 3.51092 44.4072C3.76806 44.6241 4.14278 44.6642 4.43984 44.5055C4.81281 44.3063 4.97666 43.844 4.81544 43.4537Z" fill="#576366"/>
<path d="M4.86305 40.9487C4.73016 40.2388 3.7728 40.0547 3.3656 40.6359C3.15144 40.9414 3.17364 41.3682 3.4158 41.6513C3.62755 41.8988 3.977 42.0017 4.28894 41.9067C4.69034 41.7845 4.94934 41.3624 4.86305 40.9487Z" fill="#576366"/>
<path d="M21.8244 36.8396C21.4616 37.045 21.3111 37.4948 21.4655 37.8803C21.6044 38.2096 21.9444 38.4212 22.3028 38.3909C22.6227 38.3638 22.9036 38.1498 23.0143 37.8486C23.2761 37.1361 22.4817 36.4677 21.8244 36.8396Z" fill="#576366"/>
<path d="M20.238 15.6617C19.7787 15.6617 19.4063 16.0341 19.4063 16.4934V18.5448H19.2063C19.0109 18.5448 18.8518 18.3858 18.8518 18.1903V16.9369C18.8518 16.4776 18.4795 16.1052 18.0202 16.1052C17.5609 16.1052 17.1885 16.4775 17.1885 16.9369V18.1903C17.1885 19.303 18.0937 20.2082 19.2063 20.2082H19.4063V21.377C19.4063 21.8362 19.7787 22.2087 20.238 22.2087C20.6972 22.2087 21.0696 21.8362 21.0696 21.377V16.4934C21.0696 16.0341 20.6972 15.6617 20.238 15.6617Z" fill="#576366"/>
</svg>
