<svg width="35" height="54" viewBox="0 0 35 54" fill="none" xmlns="http://www.w3.org/2000/svg">
<path d="M34.7844 22.4636C34.7228 21.9679 34.1945 21.6512 33.7279 21.8319C32.3419 22.3681 31.0323 23.0002 29.8013 23.7261C29.2123 19.8887 28.0307 13.7356 25.9587 8.63856C23.6284 2.90639 20.7831 0 17.5021 0C14.6836 0 12.1759 2.15613 10.0489 6.40855C9.85605 6.79423 10.0123 7.26323 10.3979 7.45607C10.7834 7.64891 11.2526 7.49275 11.4455 7.10707C13.286 3.42735 15.3238 1.56162 17.5021 1.56162C20.7204 1.56162 23.0905 5.72988 24.512 9.22663C26.6529 14.4934 27.8226 20.9635 28.3598 24.6446C25.8615 26.3581 23.7276 28.497 21.9838 31.0437C21.7402 31.3994 21.831 31.8854 22.1869 32.129C22.5429 32.3726 23.0287 32.2817 23.2722 31.9259C25.7849 28.2563 29.164 25.4873 33.3269 23.6834C33.5671 27.0328 33.8554 37.7697 28.424 43.9189C25.9374 46.7344 22.5311 48.2418 18.2902 48.4064C18.2892 48.3135 18.2874 48.2137 18.2849 48.1067C18.3488 45.7992 18.8177 40.0772 21.7148 34.5251C21.9143 34.1428 21.766 33.6712 21.3838 33.4717C21.0015 33.2724 20.5299 33.4203 20.3303 33.8027C18.8944 36.5546 18.0249 39.3187 17.4996 41.7329C17.2543 40.6063 16.9346 39.4031 16.5176 38.1591C15.3537 34.6876 13.6713 31.6271 11.5168 29.0625C10.0952 27.3705 8.46494 25.8972 6.64378 24.6479C7.46428 19.0135 8.73134 13.7924 10.2258 9.90074C10.3803 9.49823 10.1794 9.04657 9.77678 8.89197C9.37427 8.73706 8.92251 8.93841 8.76801 9.34092C7.29544 13.176 6.04053 18.2485 5.20206 23.7297C3.9696 23.0026 2.66108 22.3675 1.2763 21.8318C0.809687 21.6511 0.28146 21.9678 0.219847 22.4635C0.180573 22.7783 -0.715461 30.2567 1.41771 37.393C1.54114 37.8061 1.97555 38.0407 2.38938 37.9175C2.80249 37.7939 3.0373 37.3589 2.91377 36.9458C1.32482 31.6303 1.51309 25.9562 1.67694 23.6833C5.09265 25.1637 7.99011 27.2998 10.3011 30.043C12.3282 32.4493 13.9159 35.3303 15.0203 38.6055C16.3874 42.6606 16.6688 46.3368 16.7186 48.088C16.7159 48.2019 16.7142 48.3079 16.7131 48.4062C10.741 48.1751 6.45935 45.2895 3.97978 39.8198C3.8018 39.4271 3.33924 39.2529 2.94629 39.431C2.55355 39.6091 2.37951 40.0717 2.55749 40.4645C3.85739 43.3318 5.64343 45.5888 7.86585 47.1728C9.28543 48.1845 10.8906 48.9232 12.6641 49.3895V50.3337C12.6641 51.9123 13.9484 53.1966 15.5269 53.1966H19.4772C21.0557 53.1966 22.3401 51.9123 22.3401 50.3337V49.3936C25.223 48.6364 27.652 47.1519 29.5946 44.9525C31.602 42.6797 34.139 38.3609 34.8255 30.6933C35.2323 26.1516 34.8029 22.6121 34.7844 22.4636ZM20.7784 50.3339C20.7784 51.0515 20.1947 51.6352 19.4771 51.6352H15.5268C14.8093 51.6352 14.2256 51.0515 14.2256 50.3339V49.723C15.2674 49.8952 16.3598 49.9831 17.502 49.9831C18.6459 49.9831 19.7381 49.8963 20.7783 49.7249V50.3339H20.7784Z" fill="#576366"/>
<path d="M16.439 7.68393C16.439 7.09337 16.9194 6.61293 17.51 6.61293C18.1006 6.61293 18.5811 7.09337 18.5811 7.68393C18.5811 8.11512 18.9306 8.46474 19.3619 8.46474C19.7932 8.46474 20.1427 8.11512 20.1427 7.68393C20.1427 6.23235 18.9616 5.05132 17.51 5.05132C16.0583 5.05132 14.8774 6.23235 14.8774 7.68393C14.8774 8.11512 15.227 8.46474 15.6583 8.46474C16.0894 8.46464 16.439 8.11512 16.439 7.68393Z" fill="#576366"/>
<path d="M11.1736 18.2004C11.1736 18.6316 11.5231 18.9812 11.9544 18.9812C12.3857 18.9812 12.7352 18.6316 12.7352 18.2004C12.7352 17.6098 13.2156 17.1294 13.8062 17.1294C14.3968 17.1294 14.8772 17.6098 14.8772 18.2004C14.8772 18.6316 15.2267 18.9812 15.658 18.9812C16.0893 18.9812 16.4388 18.6316 16.4388 18.2004C16.4388 16.7488 15.2579 15.5677 13.8062 15.5677C12.3545 15.5677 11.1736 16.7488 11.1736 18.2004Z" fill="#576366"/>
<path d="M21.2137 15.5677C19.762 15.5677 18.5811 16.7488 18.5811 18.2004C18.5811 18.6316 18.9306 18.9812 19.3619 18.9812C19.7932 18.9812 20.1427 18.6316 20.1427 18.2004C20.1427 17.6098 20.6231 17.1294 21.2137 17.1294C21.8042 17.1294 22.2847 17.6098 22.2847 18.2004C22.2847 18.6316 22.6342 18.9812 23.0655 18.9812C23.4968 18.9812 23.8463 18.6316 23.8463 18.2004C23.8463 16.7488 22.6654 15.5677 21.2137 15.5677Z" fill="#576366"/>
<path d="M13.0254 12.9421C13.0254 13.3733 13.3749 13.7229 13.8062 13.7229C14.2375 13.7229 14.587 13.3733 14.587 12.9421C14.587 12.3516 15.0674 11.8711 15.658 11.8711C16.2486 11.8711 16.729 12.3516 16.729 12.9421C16.729 13.3733 17.0785 13.7229 17.5098 13.7229C17.9411 13.7229 18.2906 13.3733 18.2906 12.9421C18.2906 12.3516 18.7711 11.8711 19.3617 11.8711C19.9523 11.8711 20.4327 12.3516 20.4327 12.9421C20.4327 13.3733 20.7822 13.7229 21.2135 13.7229C21.6448 13.7229 21.9943 13.3733 21.9943 12.9421C21.9943 11.4905 20.8134 10.3095 19.3617 10.3095C18.6402 10.3095 17.9859 10.6014 17.5098 11.0731C17.0338 10.6015 16.3795 10.3095 15.658 10.3095C14.2063 10.3096 13.0254 11.4905 13.0254 12.9421Z" fill="#576366"/>
<path d="M17.51 26.0843C16.0583 26.0843 14.8774 27.2652 14.8774 28.7168C14.8774 29.148 15.227 29.4976 15.6583 29.4976C16.0895 29.4976 16.4391 29.148 16.4391 28.7168C16.4391 28.1263 16.9195 27.6458 17.5101 27.6458C18.1007 27.6458 18.5812 28.1263 18.5812 28.7168C18.5812 29.148 18.9307 29.4976 19.362 29.4976C19.7933 29.4976 20.1428 29.148 20.1428 28.7168C20.1427 27.2652 18.9616 26.0843 17.51 26.0843Z" fill="#576366"/>
<path d="M9.27783 23.4586C9.27783 23.8898 9.62735 24.2394 10.0586 24.2394C10.4899 24.2394 10.8394 23.8898 10.8394 23.4586C10.8394 22.868 11.3199 22.3876 11.9104 22.3876C12.501 22.3876 12.9815 22.868 12.9815 23.4586C12.9815 23.8898 13.331 24.2394 13.7623 24.2394C14.1935 24.2394 14.5431 23.8898 14.5431 23.4586C14.5431 22.868 15.0235 22.3876 15.6142 22.3876C16.2047 22.3876 16.6852 22.868 16.6852 23.4586C16.6852 23.8898 17.0347 24.2394 17.466 24.2394C17.8973 24.2394 18.2468 23.8898 18.2468 23.4586C18.2468 22.007 17.0659 20.826 15.6143 20.826C14.8928 20.826 14.2384 21.1178 13.7624 21.5896C13.2864 21.1179 12.632 20.826 11.9106 20.826C10.4588 20.826 9.27783 22.007 9.27783 23.4586Z" fill="#576366"/>
<path d="M20.4329 23.4586C20.4329 23.8898 20.7824 24.2394 21.2137 24.2394C21.645 24.2394 21.9945 23.8898 21.9945 23.4586C21.9945 22.868 22.4749 22.3876 23.0655 22.3876C23.656 22.3876 24.1365 22.868 24.1365 23.4586C24.1365 23.8898 24.486 24.2394 24.9173 24.2394C25.3486 24.2394 25.6981 23.8898 25.6981 23.4586C25.6981 22.007 24.5172 20.826 23.0655 20.826C21.6138 20.826 20.4329 22.007 20.4329 23.4586Z" fill="#576366"/>
</svg>
